<mxfile host="65bd71144e" pages="3">
    <diagram id="C5RBs43oDa-KdzZeNtuy" name="Page-1">
        <mxGraphModel dx="1113" dy="501" grid="0" gridSize="10" guides="1" tooltips="1" connect="1" arrows="1" fold="1" page="1" pageScale="1" pageWidth="1654" pageHeight="1169" math="0" shadow="0">
            <root>
                <mxCell id="WIyWlLk6GJQsqaUBKTNV-0"/>
                <mxCell id="WIyWlLk6GJQsqaUBKTNV-1" parent="WIyWlLk6GJQsqaUBKTNV-0"/>
                <mxCell id="PUGLhDaDBzMZra6PjDmg-4" value="Texture" style="swimlane;fontStyle=1;align=center;verticalAlign=top;childLayout=stackLayout;horizontal=1;startSize=26;horizontalStack=0;resizeParent=1;resizeParentMax=0;resizeLast=0;collapsible=1;marginBottom=0;" parent="WIyWlLk6GJQsqaUBKTNV-1" vertex="1">
                    <mxGeometry x="772.94" y="304" width="160" height="86" as="geometry"/>
                </mxCell>
                <mxCell id="smROIIYi_Y0sRd2uh2FI-70" value="TextureType" style="text;strokeColor=none;fillColor=none;align=left;verticalAlign=top;spacingLeft=4;spacingRight=4;overflow=hidden;rotatable=0;points=[[0,0.5],[1,0.5]];portConstraint=eastwest;" parent="PUGLhDaDBzMZra6PjDmg-4" vertex="1">
                    <mxGeometry y="26" width="160" height="26" as="geometry"/>
                </mxCell>
                <mxCell id="PUGLhDaDBzMZra6PjDmg-6" value="" style="line;strokeWidth=1;fillColor=none;align=left;verticalAlign=middle;spacingTop=-1;spacingLeft=3;spacingRight=3;rotatable=0;labelPosition=right;points=[];portConstraint=eastwest;" parent="PUGLhDaDBzMZra6PjDmg-4" vertex="1">
                    <mxGeometry y="52" width="160" height="8" as="geometry"/>
                </mxCell>
                <mxCell id="PUGLhDaDBzMZra6PjDmg-7" value="Class" style="text;strokeColor=none;fillColor=none;align=left;verticalAlign=top;spacingLeft=4;spacingRight=4;overflow=hidden;rotatable=0;points=[[0,0.5],[1,0.5]];portConstraint=eastwest;" parent="PUGLhDaDBzMZra6PjDmg-4" vertex="1">
                    <mxGeometry y="60" width="160" height="26" as="geometry"/>
                </mxCell>
                <mxCell id="M1a-iX2K4VgbEK0nrhtr-5" style="edgeStyle=orthogonalEdgeStyle;rounded=0;orthogonalLoop=1;jettySize=auto;html=1;exitX=1;exitY=0.25;exitDx=0;exitDy=0;entryX=0.5;entryY=0;entryDx=0;entryDy=0;" parent="WIyWlLk6GJQsqaUBKTNV-1" source="PUGLhDaDBzMZra6PjDmg-8" target="PUGLhDaDBzMZra6PjDmg-4" edge="1">
                    <mxGeometry relative="1" as="geometry">
                        <Array as="points">
                            <mxPoint x="752.94" y="344"/>
                            <mxPoint x="752.94" y="284"/>
                            <mxPoint x="852.94" y="284"/>
                        </Array>
                    </mxGeometry>
                </mxCell>
                <mxCell id="PUGLhDaDBzMZra6PjDmg-8" value="SimpleTexture" style="swimlane;fontStyle=1;align=center;verticalAlign=top;childLayout=stackLayout;horizontal=1;startSize=26;horizontalStack=0;resizeParent=1;resizeParentMax=0;resizeLast=0;collapsible=1;marginBottom=0;" parent="WIyWlLk6GJQsqaUBKTNV-1" vertex="1">
                    <mxGeometry x="576.94" y="322" width="160" height="86" as="geometry"/>
                </mxCell>
                <mxCell id="PUGLhDaDBzMZra6PjDmg-9" value="" style="line;strokeWidth=1;fillColor=none;align=left;verticalAlign=middle;spacingTop=-1;spacingLeft=3;spacingRight=3;rotatable=0;labelPosition=right;points=[];portConstraint=eastwest;" parent="PUGLhDaDBzMZra6PjDmg-8" vertex="1">
                    <mxGeometry y="26" width="160" height="8" as="geometry"/>
                </mxCell>
                <mxCell id="PUGLhDaDBzMZra6PjDmg-10" value="SimpleTexture" style="text;strokeColor=none;fillColor=none;align=left;verticalAlign=top;spacingLeft=4;spacingRight=4;overflow=hidden;rotatable=0;points=[[0,0.5],[1,0.5]];portConstraint=eastwest;" parent="PUGLhDaDBzMZra6PjDmg-8" vertex="1">
                    <mxGeometry y="34" width="160" height="26" as="geometry"/>
                </mxCell>
                <mxCell id="smROIIYi_Y0sRd2uh2FI-71" value="DrawTexture" style="text;strokeColor=none;fillColor=none;align=left;verticalAlign=top;spacingLeft=4;spacingRight=4;overflow=hidden;rotatable=0;points=[[0,0.5],[1,0.5]];portConstraint=eastwest;" parent="PUGLhDaDBzMZra6PjDmg-8" vertex="1">
                    <mxGeometry y="60" width="160" height="26" as="geometry"/>
                </mxCell>
                <mxCell id="PUGLhDaDBzMZra6PjDmg-11" value="Scene" style="swimlane;fontStyle=1;align=center;verticalAlign=top;childLayout=stackLayout;horizontal=1;startSize=26;horizontalStack=0;resizeParent=1;resizeParentMax=0;resizeLast=0;collapsible=1;marginBottom=0;" parent="WIyWlLk6GJQsqaUBKTNV-1" vertex="1">
                    <mxGeometry x="362.94" y="270" width="160" height="346" as="geometry">
                        <mxRectangle x="100" y="350" width="70" height="26" as="alternateBounds"/>
                    </mxGeometry>
                </mxCell>
                <mxCell id="PUGLhDaDBzMZra6PjDmg-12" value="" style="line;strokeWidth=1;fillColor=none;align=left;verticalAlign=middle;spacingTop=-1;spacingLeft=3;spacingRight=3;rotatable=0;labelPosition=right;points=[];portConstraint=eastwest;" parent="PUGLhDaDBzMZra6PjDmg-11" vertex="1">
                    <mxGeometry y="26" width="160" height="8" as="geometry"/>
                </mxCell>
                <mxCell id="PUGLhDaDBzMZra6PjDmg-13" value="Scene" style="text;strokeColor=none;fillColor=none;align=left;verticalAlign=top;spacingLeft=4;spacingRight=4;overflow=hidden;rotatable=0;points=[[0,0.5],[1,0.5]];portConstraint=eastwest;" parent="PUGLhDaDBzMZra6PjDmg-11" vertex="1">
                    <mxGeometry y="34" width="160" height="26" as="geometry"/>
                </mxCell>
                <mxCell id="smROIIYi_Y0sRd2uh2FI-20" value="DrawHouse" style="text;strokeColor=none;fillColor=none;align=left;verticalAlign=top;spacingLeft=4;spacingRight=4;overflow=hidden;rotatable=0;points=[[0,0.5],[1,0.5]];portConstraint=eastwest;" parent="PUGLhDaDBzMZra6PjDmg-11" vertex="1">
                    <mxGeometry y="60" width="160" height="26" as="geometry"/>
                </mxCell>
                <mxCell id="smROIIYi_Y0sRd2uh2FI-21" value="DrawShadow" style="text;strokeColor=none;fillColor=none;align=left;verticalAlign=top;spacingLeft=4;spacingRight=4;overflow=hidden;rotatable=0;points=[[0,0.5],[1,0.5]];portConstraint=eastwest;" parent="PUGLhDaDBzMZra6PjDmg-11" vertex="1">
                    <mxGeometry y="86" width="160" height="26" as="geometry"/>
                </mxCell>
                <mxCell id="smROIIYi_Y0sRd2uh2FI-19" value="DrawSky" style="text;strokeColor=none;fillColor=none;align=left;verticalAlign=top;spacingLeft=4;spacingRight=4;overflow=hidden;rotatable=0;points=[[0,0.5],[1,0.5]];portConstraint=eastwest;" parent="PUGLhDaDBzMZra6PjDmg-11" vertex="1">
                    <mxGeometry y="112" width="160" height="26" as="geometry"/>
                </mxCell>
                <mxCell id="smROIIYi_Y0sRd2uh2FI-22" value="DrawEarth" style="text;strokeColor=none;fillColor=none;align=left;verticalAlign=top;spacingLeft=4;spacingRight=4;overflow=hidden;rotatable=0;points=[[0,0.5],[1,0.5]];portConstraint=eastwest;" parent="PUGLhDaDBzMZra6PjDmg-11" vertex="1">
                    <mxGeometry y="138" width="160" height="26" as="geometry"/>
                </mxCell>
                <mxCell id="smROIIYi_Y0sRd2uh2FI-23" value="DrawLightning" style="text;strokeColor=none;fillColor=none;align=left;verticalAlign=top;spacingLeft=4;spacingRight=4;overflow=hidden;rotatable=0;points=[[0,0.5],[1,0.5]];portConstraint=eastwest;" parent="PUGLhDaDBzMZra6PjDmg-11" vertex="1">
                    <mxGeometry y="164" width="160" height="26" as="geometry"/>
                </mxCell>
                <mxCell id="smROIIYi_Y0sRd2uh2FI-25" value="LightOn" style="text;strokeColor=none;fillColor=none;align=left;verticalAlign=top;spacingLeft=4;spacingRight=4;overflow=hidden;rotatable=0;points=[[0,0.5],[1,0.5]];portConstraint=eastwest;" parent="PUGLhDaDBzMZra6PjDmg-11" vertex="1">
                    <mxGeometry y="190" width="160" height="26" as="geometry"/>
                </mxCell>
                <mxCell id="smROIIYi_Y0sRd2uh2FI-26" value="LightOff" style="text;strokeColor=none;fillColor=none;align=left;verticalAlign=top;spacingLeft=4;spacingRight=4;overflow=hidden;rotatable=0;points=[[0,0.5],[1,0.5]];portConstraint=eastwest;" parent="PUGLhDaDBzMZra6PjDmg-11" vertex="1">
                    <mxGeometry y="216" width="160" height="26" as="geometry"/>
                </mxCell>
                <mxCell id="smROIIYi_Y0sRd2uh2FI-28" value="Move" style="text;strokeColor=none;fillColor=none;align=left;verticalAlign=top;spacingLeft=4;spacingRight=4;overflow=hidden;rotatable=0;points=[[0,0.5],[1,0.5]];portConstraint=eastwest;" parent="PUGLhDaDBzMZra6PjDmg-11" vertex="1">
                    <mxGeometry y="242" width="160" height="26" as="geometry"/>
                </mxCell>
                <mxCell id="smROIIYi_Y0sRd2uh2FI-29" value="Trace" style="text;strokeColor=none;fillColor=none;align=left;verticalAlign=top;spacingLeft=4;spacingRight=4;overflow=hidden;rotatable=0;points=[[0,0.5],[1,0.5]];portConstraint=eastwest;" parent="PUGLhDaDBzMZra6PjDmg-11" vertex="1">
                    <mxGeometry y="268" width="160" height="26" as="geometry"/>
                </mxCell>
                <mxCell id="smROIIYi_Y0sRd2uh2FI-31" value="DrawScene" style="text;strokeColor=none;fillColor=none;align=left;verticalAlign=top;spacingLeft=4;spacingRight=4;overflow=hidden;rotatable=0;points=[[0,0.5],[1,0.5]];portConstraint=eastwest;" parent="PUGLhDaDBzMZra6PjDmg-11" vertex="1">
                    <mxGeometry y="294" width="160" height="26" as="geometry"/>
                </mxCell>
                <mxCell id="smROIIYi_Y0sRd2uh2FI-33" value="FLoarChange" style="text;strokeColor=none;fillColor=none;align=left;verticalAlign=top;spacingLeft=4;spacingRight=4;overflow=hidden;rotatable=0;points=[[0,0.5],[1,0.5]];portConstraint=eastwest;" parent="PUGLhDaDBzMZra6PjDmg-11" vertex="1">
                    <mxGeometry y="320" width="160" height="26" as="geometry"/>
                </mxCell>
                <mxCell id="PUGLhDaDBzMZra6PjDmg-14" value="Window&#10;" style="swimlane;fontStyle=1;align=center;verticalAlign=top;childLayout=stackLayout;horizontal=1;startSize=26;horizontalStack=0;resizeParent=1;resizeParentMax=0;resizeLast=0;collapsible=1;marginBottom=0;" parent="WIyWlLk6GJQsqaUBKTNV-1" vertex="1">
                    <mxGeometry x="165.94" y="634" width="160" height="138" as="geometry"/>
                </mxCell>
                <mxCell id="PUGLhDaDBzMZra6PjDmg-15" value="" style="line;strokeWidth=1;fillColor=none;align=left;verticalAlign=middle;spacingTop=-1;spacingLeft=3;spacingRight=3;rotatable=0;labelPosition=right;points=[];portConstraint=eastwest;" parent="PUGLhDaDBzMZra6PjDmg-14" vertex="1">
                    <mxGeometry y="26" width="160" height="8" as="geometry"/>
                </mxCell>
                <mxCell id="PUGLhDaDBzMZra6PjDmg-16" value="Window" style="text;strokeColor=none;fillColor=none;align=left;verticalAlign=top;spacingLeft=4;spacingRight=4;overflow=hidden;rotatable=0;points=[[0,0.5],[1,0.5]];portConstraint=eastwest;" parent="PUGLhDaDBzMZra6PjDmg-14" vertex="1">
                    <mxGeometry y="34" width="160" height="26" as="geometry"/>
                </mxCell>
                <mxCell id="smROIIYi_Y0sRd2uh2FI-50" value="TurnW" style="text;strokeColor=none;fillColor=none;align=left;verticalAlign=top;spacingLeft=4;spacingRight=4;overflow=hidden;rotatable=0;points=[[0,0.5],[1,0.5]];portConstraint=eastwest;" parent="PUGLhDaDBzMZra6PjDmg-14" vertex="1">
                    <mxGeometry y="60" width="160" height="26" as="geometry"/>
                </mxCell>
                <mxCell id="smROIIYi_Y0sRd2uh2FI-51" value="DrawWindow" style="text;strokeColor=none;fillColor=none;align=left;verticalAlign=top;spacingLeft=4;spacingRight=4;overflow=hidden;rotatable=0;points=[[0,0.5],[1,0.5]];portConstraint=eastwest;" parent="PUGLhDaDBzMZra6PjDmg-14" vertex="1">
                    <mxGeometry y="86" width="160" height="26" as="geometry"/>
                </mxCell>
                <mxCell id="smROIIYi_Y0sRd2uh2FI-52" value="ToPolygon" style="text;strokeColor=none;fillColor=none;align=left;verticalAlign=top;spacingLeft=4;spacingRight=4;overflow=hidden;rotatable=0;points=[[0,0.5],[1,0.5]];portConstraint=eastwest;" parent="PUGLhDaDBzMZra6PjDmg-14" vertex="1">
                    <mxGeometry y="112" width="160" height="26" as="geometry"/>
                </mxCell>
                <mxCell id="PUGLhDaDBzMZra6PjDmg-17" value="House" style="swimlane;fontStyle=1;align=center;verticalAlign=top;childLayout=stackLayout;horizontal=1;startSize=26;horizontalStack=0;resizeParent=1;resizeParentMax=0;resizeLast=0;collapsible=1;marginBottom=0;" parent="WIyWlLk6GJQsqaUBKTNV-1" vertex="1">
                    <mxGeometry x="124.94" y="379" width="160" height="196" as="geometry"/>
                </mxCell>
                <mxCell id="PUGLhDaDBzMZra6PjDmg-18" value="" style="line;strokeWidth=1;fillColor=none;align=left;verticalAlign=middle;spacingTop=-1;spacingLeft=3;spacingRight=3;rotatable=0;labelPosition=right;points=[];portConstraint=eastwest;" parent="PUGLhDaDBzMZra6PjDmg-17" vertex="1">
                    <mxGeometry y="26" width="160" height="14" as="geometry"/>
                </mxCell>
                <mxCell id="smROIIYi_Y0sRd2uh2FI-67" value="Side" style="text;strokeColor=none;fillColor=none;align=left;verticalAlign=top;spacingLeft=4;spacingRight=4;overflow=hidden;rotatable=0;points=[[0,0.5],[1,0.5]];portConstraint=eastwest;" parent="PUGLhDaDBzMZra6PjDmg-17" vertex="1">
                    <mxGeometry y="40" width="160" height="26" as="geometry"/>
                </mxCell>
                <mxCell id="PUGLhDaDBzMZra6PjDmg-19" value="House" style="text;strokeColor=none;fillColor=none;align=left;verticalAlign=top;spacingLeft=4;spacingRight=4;overflow=hidden;rotatable=0;points=[[0,0.5],[1,0.5]];portConstraint=eastwest;" parent="PUGLhDaDBzMZra6PjDmg-17" vertex="1">
                    <mxGeometry y="66" width="160" height="26" as="geometry"/>
                </mxCell>
                <mxCell id="smROIIYi_Y0sRd2uh2FI-7" value="WindowsCreate" style="text;strokeColor=none;fillColor=none;align=left;verticalAlign=top;spacingLeft=4;spacingRight=4;overflow=hidden;rotatable=0;points=[[0,0.5],[1,0.5]];portConstraint=eastwest;" parent="PUGLhDaDBzMZra6PjDmg-17" vertex="1">
                    <mxGeometry y="92" width="160" height="26" as="geometry"/>
                </mxCell>
                <mxCell id="smROIIYi_Y0sRd2uh2FI-10" value="TurnHouse" style="text;strokeColor=none;fillColor=none;align=left;verticalAlign=top;spacingLeft=4;spacingRight=4;overflow=hidden;rotatable=0;points=[[0,0.5],[1,0.5]];portConstraint=eastwest;" parent="PUGLhDaDBzMZra6PjDmg-17" vertex="1">
                    <mxGeometry y="118" width="160" height="26" as="geometry"/>
                </mxCell>
                <mxCell id="smROIIYi_Y0sRd2uh2FI-14" value="DrawWindow" style="text;strokeColor=none;fillColor=none;align=left;verticalAlign=top;spacingLeft=4;spacingRight=4;overflow=hidden;rotatable=0;points=[[0,0.5],[1,0.5]];portConstraint=eastwest;" parent="PUGLhDaDBzMZra6PjDmg-17" vertex="1">
                    <mxGeometry y="144" width="160" height="26" as="geometry"/>
                </mxCell>
                <mxCell id="smROIIYi_Y0sRd2uh2FI-17" value="DrawHouse" style="text;strokeColor=none;fillColor=none;align=left;verticalAlign=top;spacingLeft=4;spacingRight=4;overflow=hidden;rotatable=0;points=[[0,0.5],[1,0.5]];portConstraint=eastwest;" parent="PUGLhDaDBzMZra6PjDmg-17" vertex="1">
                    <mxGeometry y="170" width="160" height="26" as="geometry"/>
                </mxCell>
                <mxCell id="PUGLhDaDBzMZra6PjDmg-20" value="Lightning" style="swimlane;fontStyle=1;align=center;verticalAlign=top;childLayout=stackLayout;horizontal=1;startSize=26;horizontalStack=0;resizeParent=1;resizeParentMax=0;resizeLast=0;collapsible=1;marginBottom=0;" parent="WIyWlLk6GJQsqaUBKTNV-1" vertex="1">
                    <mxGeometry x="591.94" y="542" width="160" height="164" as="geometry"/>
                </mxCell>
                <mxCell id="PUGLhDaDBzMZra6PjDmg-21" value="" style="line;strokeWidth=1;fillColor=none;align=left;verticalAlign=middle;spacingTop=-1;spacingLeft=3;spacingRight=3;rotatable=0;labelPosition=right;points=[];portConstraint=eastwest;" parent="PUGLhDaDBzMZra6PjDmg-20" vertex="1">
                    <mxGeometry y="26" width="160" height="8" as="geometry"/>
                </mxCell>
                <mxCell id="PUGLhDaDBzMZra6PjDmg-22" value="Lightning" style="text;strokeColor=none;fillColor=none;align=left;verticalAlign=top;spacingLeft=4;spacingRight=4;overflow=hidden;rotatable=0;points=[[0,0.5],[1,0.5]];portConstraint=eastwest;" parent="PUGLhDaDBzMZra6PjDmg-20" vertex="1">
                    <mxGeometry y="34" width="160" height="26" as="geometry"/>
                </mxCell>
                <mxCell id="smROIIYi_Y0sRd2uh2FI-36" value="TurnLightning" style="text;strokeColor=none;fillColor=none;align=left;verticalAlign=top;spacingLeft=4;spacingRight=4;overflow=hidden;rotatable=0;points=[[0,0.5],[1,0.5]];portConstraint=eastwest;" parent="PUGLhDaDBzMZra6PjDmg-20" vertex="1">
                    <mxGeometry y="60" width="160" height="26" as="geometry"/>
                </mxCell>
                <mxCell id="smROIIYi_Y0sRd2uh2FI-37" value="ScaleLightning" style="text;strokeColor=none;fillColor=none;align=left;verticalAlign=top;spacingLeft=4;spacingRight=4;overflow=hidden;rotatable=0;points=[[0,0.5],[1,0.5]];portConstraint=eastwest;" parent="PUGLhDaDBzMZra6PjDmg-20" vertex="1">
                    <mxGeometry y="86" width="160" height="26" as="geometry"/>
                </mxCell>
                <mxCell id="smROIIYi_Y0sRd2uh2FI-39" value="DrawLightning" style="text;strokeColor=none;fillColor=none;align=left;verticalAlign=top;spacingLeft=4;spacingRight=4;overflow=hidden;rotatable=0;points=[[0,0.5],[1,0.5]];portConstraint=eastwest;" parent="PUGLhDaDBzMZra6PjDmg-20" vertex="1">
                    <mxGeometry y="112" width="160" height="26" as="geometry"/>
                </mxCell>
                <mxCell id="smROIIYi_Y0sRd2uh2FI-40" value="DrawArea" style="text;strokeColor=none;fillColor=none;align=left;verticalAlign=top;spacingLeft=4;spacingRight=4;overflow=hidden;rotatable=0;points=[[0,0.5],[1,0.5]];portConstraint=eastwest;" parent="PUGLhDaDBzMZra6PjDmg-20" vertex="1">
                    <mxGeometry y="138" width="160" height="26" as="geometry"/>
                </mxCell>
                <mxCell id="PUGLhDaDBzMZra6PjDmg-23" value="Shadow" style="swimlane;fontStyle=1;align=center;verticalAlign=top;childLayout=stackLayout;horizontal=1;startSize=26;horizontalStack=0;resizeParent=1;resizeParentMax=0;resizeLast=0;collapsible=1;marginBottom=0;" parent="WIyWlLk6GJQsqaUBKTNV-1" vertex="1">
                    <mxGeometry x="128.94" y="262" width="160" height="86" as="geometry"/>
                </mxCell>
                <mxCell id="PUGLhDaDBzMZra6PjDmg-24" value="" style="line;strokeWidth=1;fillColor=none;align=left;verticalAlign=middle;spacingTop=-1;spacingLeft=3;spacingRight=3;rotatable=0;labelPosition=right;points=[];portConstraint=eastwest;" parent="PUGLhDaDBzMZra6PjDmg-23" vertex="1">
                    <mxGeometry y="26" width="160" height="8" as="geometry"/>
                </mxCell>
                <mxCell id="PUGLhDaDBzMZra6PjDmg-25" value="Shadow" style="text;strokeColor=none;fillColor=none;align=left;verticalAlign=top;spacingLeft=4;spacingRight=4;overflow=hidden;rotatable=0;points=[[0,0.5],[1,0.5]];portConstraint=eastwest;" parent="PUGLhDaDBzMZra6PjDmg-23" vertex="1">
                    <mxGeometry y="34" width="160" height="26" as="geometry"/>
                </mxCell>
                <mxCell id="smROIIYi_Y0sRd2uh2FI-43" value="DrawShadow" style="text;strokeColor=none;fillColor=none;align=left;verticalAlign=top;spacingLeft=4;spacingRight=4;overflow=hidden;rotatable=0;points=[[0,0.5],[1,0.5]];portConstraint=eastwest;" parent="PUGLhDaDBzMZra6PjDmg-23" vertex="1">
                    <mxGeometry y="60" width="160" height="26" as="geometry"/>
                </mxCell>
                <mxCell id="M1a-iX2K4VgbEK0nrhtr-28" style="edgeStyle=orthogonalEdgeStyle;rounded=0;orthogonalLoop=1;jettySize=auto;html=1;exitX=1;exitY=0.25;exitDx=0;exitDy=0;entryX=0.75;entryY=0;entryDx=0;entryDy=0;" parent="WIyWlLk6GJQsqaUBKTNV-1" source="smROIIYi_Y0sRd2uh2FI-0" target="PUGLhDaDBzMZra6PjDmg-20" edge="1">
                    <mxGeometry relative="1" as="geometry">
                        <Array as="points">
                            <mxPoint x="789.94" y="765"/>
                            <mxPoint x="789.94" y="520"/>
                            <mxPoint x="711.94" y="520"/>
                        </Array>
                    </mxGeometry>
                </mxCell>
                <mxCell id="smROIIYi_Y0sRd2uh2FI-0" value="Highlight" style="swimlane;fontStyle=1;align=center;verticalAlign=top;childLayout=stackLayout;horizontal=1;startSize=26;horizontalStack=0;resizeParent=1;resizeParentMax=0;resizeLast=0;collapsible=1;marginBottom=0;" parent="WIyWlLk6GJQsqaUBKTNV-1" vertex="1">
                    <mxGeometry x="612.94" y="750" width="160" height="60" as="geometry"/>
                </mxCell>
                <mxCell id="smROIIYi_Y0sRd2uh2FI-1" value="" style="line;strokeWidth=1;fillColor=none;align=left;verticalAlign=middle;spacingTop=-1;spacingLeft=3;spacingRight=3;rotatable=0;labelPosition=right;points=[];portConstraint=eastwest;" parent="smROIIYi_Y0sRd2uh2FI-0" vertex="1">
                    <mxGeometry y="26" width="160" height="8" as="geometry"/>
                </mxCell>
                <mxCell id="smROIIYi_Y0sRd2uh2FI-2" value="Highlight" style="text;strokeColor=none;fillColor=none;align=left;verticalAlign=top;spacingLeft=4;spacingRight=4;overflow=hidden;rotatable=0;points=[[0,0.5],[1,0.5]];portConstraint=eastwest;" parent="smROIIYi_Y0sRd2uh2FI-0" vertex="1">
                    <mxGeometry y="34" width="160" height="26" as="geometry"/>
                </mxCell>
                <mxCell id="smROIIYi_Y0sRd2uh2FI-73" style="edgeStyle=orthogonalEdgeStyle;rounded=0;orthogonalLoop=1;jettySize=auto;html=1;exitX=1;exitY=0.5;exitDx=0;exitDy=0;" parent="WIyWlLk6GJQsqaUBKTNV-1" source="smROIIYi_Y0sRd2uh2FI-22" target="PUGLhDaDBzMZra6PjDmg-8" edge="1">
                    <mxGeometry relative="1" as="geometry">
                        <Array as="points">
                            <mxPoint x="541.94" y="421"/>
                            <mxPoint x="541.94" y="313"/>
                            <mxPoint x="656.94" y="313"/>
                        </Array>
                    </mxGeometry>
                </mxCell>
                <mxCell id="smROIIYi_Y0sRd2uh2FI-80" value="Form" style="swimlane;fontStyle=1;align=center;verticalAlign=top;childLayout=stackLayout;horizontal=1;startSize=26;horizontalStack=0;resizeParent=1;resizeParentMax=0;resizeLast=0;collapsible=1;marginBottom=0;" parent="WIyWlLk6GJQsqaUBKTNV-1" vertex="1">
                    <mxGeometry x="565.94" y="238" width="160" height="60" as="geometry"/>
                </mxCell>
                <mxCell id="smROIIYi_Y0sRd2uh2FI-82" value="" style="line;strokeWidth=1;fillColor=none;align=left;verticalAlign=middle;spacingTop=-1;spacingLeft=3;spacingRight=3;rotatable=0;labelPosition=right;points=[];portConstraint=eastwest;" parent="smROIIYi_Y0sRd2uh2FI-80" vertex="1">
                    <mxGeometry y="26" width="160" height="8" as="geometry"/>
                </mxCell>
                <mxCell id="smROIIYi_Y0sRd2uh2FI-83" value="Class" style="text;strokeColor=none;fillColor=none;align=left;verticalAlign=top;spacingLeft=4;spacingRight=4;overflow=hidden;rotatable=0;points=[[0,0.5],[1,0.5]];portConstraint=eastwest;" parent="smROIIYi_Y0sRd2uh2FI-80" vertex="1">
                    <mxGeometry y="34" width="160" height="26" as="geometry"/>
                </mxCell>
                <mxCell id="M1a-iX2K4VgbEK0nrhtr-25" style="edgeStyle=orthogonalEdgeStyle;rounded=0;orthogonalLoop=1;jettySize=auto;html=1;exitX=1;exitY=0.25;exitDx=0;exitDy=0;entryX=0.75;entryY=0;entryDx=0;entryDy=0;" parent="WIyWlLk6GJQsqaUBKTNV-1" source="PUGLhDaDBzMZra6PjDmg-0" target="PUGLhDaDBzMZra6PjDmg-4" edge="1">
                    <mxGeometry relative="1" as="geometry"/>
                </mxCell>
                <mxCell id="PUGLhDaDBzMZra6PjDmg-0" value="VectorTexture" style="swimlane;fontStyle=1;align=center;verticalAlign=top;childLayout=stackLayout;horizontal=1;startSize=26;horizontalStack=0;resizeParent=1;resizeParentMax=0;resizeLast=0;collapsible=1;marginBottom=0;" parent="WIyWlLk6GJQsqaUBKTNV-1" vertex="1">
                    <mxGeometry x="777.94" y="416" width="160" height="86" as="geometry"/>
                </mxCell>
                <mxCell id="PUGLhDaDBzMZra6PjDmg-2" value="" style="line;strokeWidth=1;fillColor=none;align=left;verticalAlign=middle;spacingTop=-1;spacingLeft=3;spacingRight=3;rotatable=0;labelPosition=right;points=[];portConstraint=eastwest;" parent="PUGLhDaDBzMZra6PjDmg-0" vertex="1">
                    <mxGeometry y="26" width="160" height="8" as="geometry"/>
                </mxCell>
                <mxCell id="PUGLhDaDBzMZra6PjDmg-3" value="VectorTexture" style="text;strokeColor=none;fillColor=none;align=left;verticalAlign=top;spacingLeft=4;spacingRight=4;overflow=hidden;rotatable=0;points=[[0,0.5],[1,0.5]];portConstraint=eastwest;" parent="PUGLhDaDBzMZra6PjDmg-0" vertex="1">
                    <mxGeometry y="34" width="160" height="26" as="geometry"/>
                </mxCell>
                <mxCell id="smROIIYi_Y0sRd2uh2FI-68" value="DrawTexture" style="text;strokeColor=none;fillColor=none;align=left;verticalAlign=top;spacingLeft=4;spacingRight=4;overflow=hidden;rotatable=0;points=[[0,0.5],[1,0.5]];portConstraint=eastwest;" parent="PUGLhDaDBzMZra6PjDmg-0" vertex="1">
                    <mxGeometry y="60" width="160" height="26" as="geometry"/>
                </mxCell>
                <mxCell id="M1a-iX2K4VgbEK0nrhtr-10" style="edgeStyle=orthogonalEdgeStyle;rounded=0;orthogonalLoop=1;jettySize=auto;html=1;exitX=0;exitY=0.5;exitDx=0;exitDy=0;entryX=0.5;entryY=0;entryDx=0;entryDy=0;" parent="WIyWlLk6GJQsqaUBKTNV-1" source="smROIIYi_Y0sRd2uh2FI-20" target="PUGLhDaDBzMZra6PjDmg-17" edge="1">
                    <mxGeometry relative="1" as="geometry">
                        <mxPoint x="416.234117647059" y="959.8823529411766" as="targetPoint"/>
                        <Array as="points">
                            <mxPoint x="362.94" y="361"/>
                            <mxPoint x="204.94" y="361"/>
                        </Array>
                    </mxGeometry>
                </mxCell>
                <mxCell id="smROIIYi_Y0sRd2uh2FI-56" value="RayTracer" style="swimlane;fontStyle=1;align=center;verticalAlign=top;childLayout=stackLayout;horizontal=1;startSize=26;horizontalStack=0;resizeParent=1;resizeParentMax=0;resizeLast=0;collapsible=1;marginBottom=0;" parent="WIyWlLk6GJQsqaUBKTNV-1" vertex="1">
                    <mxGeometry x="369.94" y="664" width="160" height="138" as="geometry"/>
                </mxCell>
                <mxCell id="smROIIYi_Y0sRd2uh2FI-57" value="Trace" style="text;strokeColor=none;fillColor=none;align=left;verticalAlign=top;spacingLeft=4;spacingRight=4;overflow=hidden;rotatable=0;points=[[0,0.5],[1,0.5]];portConstraint=eastwest;" parent="smROIIYi_Y0sRd2uh2FI-56" vertex="1">
                    <mxGeometry y="26" width="160" height="26" as="geometry"/>
                </mxCell>
                <mxCell id="smROIIYi_Y0sRd2uh2FI-59" value="Ray" style="text;strokeColor=none;fillColor=none;align=left;verticalAlign=top;spacingLeft=4;spacingRight=4;overflow=hidden;rotatable=0;points=[[0,0.5],[1,0.5]];portConstraint=eastwest;" parent="smROIIYi_Y0sRd2uh2FI-56" vertex="1">
                    <mxGeometry y="52" width="160" height="26" as="geometry"/>
                </mxCell>
                <mxCell id="smROIIYi_Y0sRd2uh2FI-58" value="" style="line;strokeWidth=1;fillColor=none;align=left;verticalAlign=middle;spacingTop=-1;spacingLeft=3;spacingRight=3;rotatable=0;labelPosition=right;points=[];portConstraint=eastwest;" parent="smROIIYi_Y0sRd2uh2FI-56" vertex="1">
                    <mxGeometry y="78" width="160" height="8" as="geometry"/>
                </mxCell>
                <mxCell id="smROIIYi_Y0sRd2uh2FI-60" value="Trace" style="text;strokeColor=none;fillColor=none;align=left;verticalAlign=top;spacingLeft=4;spacingRight=4;overflow=hidden;rotatable=0;points=[[0,0.5],[1,0.5]];portConstraint=eastwest;" parent="smROIIYi_Y0sRd2uh2FI-56" vertex="1">
                    <mxGeometry y="86" width="160" height="26" as="geometry"/>
                </mxCell>
                <mxCell id="smROIIYi_Y0sRd2uh2FI-61" value="Reflection" style="text;strokeColor=none;fillColor=none;align=left;verticalAlign=top;spacingLeft=4;spacingRight=4;overflow=hidden;rotatable=0;points=[[0,0.5],[1,0.5]];portConstraint=eastwest;" parent="smROIIYi_Y0sRd2uh2FI-56" vertex="1">
                    <mxGeometry y="112" width="160" height="26" as="geometry"/>
                </mxCell>
                <mxCell id="M1a-iX2K4VgbEK0nrhtr-17" style="edgeStyle=orthogonalEdgeStyle;rounded=0;orthogonalLoop=1;jettySize=auto;html=1;exitX=0;exitY=0.5;exitDx=0;exitDy=0;entryX=0.5;entryY=0;entryDx=0;entryDy=0;" parent="WIyWlLk6GJQsqaUBKTNV-1" source="PUGLhDaDBzMZra6PjDmg-13" target="PUGLhDaDBzMZra6PjDmg-23" edge="1">
                    <mxGeometry relative="1" as="geometry">
                        <Array as="points">
                            <mxPoint x="325.94" y="317"/>
                            <mxPoint x="325.94" y="245"/>
                            <mxPoint x="208.94" y="245"/>
                        </Array>
                    </mxGeometry>
                </mxCell>
                <mxCell id="M1a-iX2K4VgbEK0nrhtr-18" style="edgeStyle=orthogonalEdgeStyle;rounded=0;orthogonalLoop=1;jettySize=auto;html=1;exitX=0;exitY=0.5;exitDx=0;exitDy=0;entryX=0.5;entryY=0;entryDx=0;entryDy=0;" parent="WIyWlLk6GJQsqaUBKTNV-1" source="smROIIYi_Y0sRd2uh2FI-83" target="PUGLhDaDBzMZra6PjDmg-11" edge="1">
                    <mxGeometry relative="1" as="geometry"/>
                </mxCell>
                <mxCell id="M1a-iX2K4VgbEK0nrhtr-24" style="edgeStyle=orthogonalEdgeStyle;rounded=0;orthogonalLoop=1;jettySize=auto;html=1;exitX=0;exitY=0.5;exitDx=0;exitDy=0;entryX=0.5;entryY=0;entryDx=0;entryDy=0;" parent="WIyWlLk6GJQsqaUBKTNV-1" source="smROIIYi_Y0sRd2uh2FI-14" target="PUGLhDaDBzMZra6PjDmg-14" edge="1">
                    <mxGeometry relative="1" as="geometry"/>
                </mxCell>
                <mxCell id="M1a-iX2K4VgbEK0nrhtr-29" style="edgeStyle=orthogonalEdgeStyle;rounded=0;orthogonalLoop=1;jettySize=auto;html=1;exitX=1;exitY=0.5;exitDx=0;exitDy=0;entryX=0.25;entryY=0;entryDx=0;entryDy=0;" parent="WIyWlLk6GJQsqaUBKTNV-1" source="smROIIYi_Y0sRd2uh2FI-57" target="PUGLhDaDBzMZra6PjDmg-20" edge="1">
                    <mxGeometry relative="1" as="geometry"/>
                </mxCell>
                <mxCell id="M1a-iX2K4VgbEK0nrhtr-30" style="edgeStyle=orthogonalEdgeStyle;rounded=0;orthogonalLoop=1;jettySize=auto;html=1;exitX=1;exitY=0.5;exitDx=0;exitDy=0;entryX=0.5;entryY=0;entryDx=0;entryDy=0;" parent="WIyWlLk6GJQsqaUBKTNV-1" source="PUGLhDaDBzMZra6PjDmg-16" target="PUGLhDaDBzMZra6PjDmg-20" edge="1">
                    <mxGeometry relative="1" as="geometry">
                        <Array as="points">
                            <mxPoint x="325.94" y="647"/>
                            <mxPoint x="539.94" y="647"/>
                            <mxPoint x="539.94" y="463"/>
                            <mxPoint x="671.94" y="463"/>
                        </Array>
                    </mxGeometry>
                </mxCell>
                <mxCell id="M1a-iX2K4VgbEK0nrhtr-31" style="edgeStyle=orthogonalEdgeStyle;rounded=0;orthogonalLoop=1;jettySize=auto;html=1;exitX=0;exitY=0.5;exitDx=0;exitDy=0;entryX=0.25;entryY=0;entryDx=0;entryDy=0;" parent="WIyWlLk6GJQsqaUBKTNV-1" source="smROIIYi_Y0sRd2uh2FI-57" target="PUGLhDaDBzMZra6PjDmg-17" edge="1">
                    <mxGeometry relative="1" as="geometry">
                        <Array as="points">
                            <mxPoint x="369.94" y="770"/>
                            <mxPoint x="353.94" y="770"/>
                            <mxPoint x="353.94" y="809"/>
                            <mxPoint x="79.94" y="809"/>
                            <mxPoint x="79.94" y="365"/>
                            <mxPoint x="164.94" y="365"/>
                        </Array>
                    </mxGeometry>
                </mxCell>
                <mxCell id="M1a-iX2K4VgbEK0nrhtr-32" style="edgeStyle=orthogonalEdgeStyle;rounded=0;orthogonalLoop=1;jettySize=auto;html=1;exitX=0;exitY=0.5;exitDx=0;exitDy=0;entryX=0.25;entryY=0;entryDx=0;entryDy=0;" parent="WIyWlLk6GJQsqaUBKTNV-1" source="smROIIYi_Y0sRd2uh2FI-57" target="PUGLhDaDBzMZra6PjDmg-14" edge="1">
                    <mxGeometry relative="1" as="geometry">
                        <Array as="points">
                            <mxPoint x="341.94" y="703"/>
                            <mxPoint x="341.94" y="790"/>
                            <mxPoint x="119.94" y="790"/>
                            <mxPoint x="119.94" y="614"/>
                            <mxPoint x="205.94" y="614"/>
                        </Array>
                    </mxGeometry>
                </mxCell>
            </root>
        </mxGraphModel>
    </diagram>
    <diagram id="3OWUYGctJhwA0KJmQPzr" name="Страница 2">
        <mxGraphModel dx="1113" dy="501" grid="0" gridSize="10" guides="1" tooltips="1" connect="1" arrows="1" fold="1" page="1" pageScale="1" pageWidth="827" pageHeight="1169" math="0" shadow="0">
            <root>
                <mxCell id="bgdEapvP35yIxuQmbcLZ-0"/>
                <mxCell id="bgdEapvP35yIxuQmbcLZ-1" parent="bgdEapvP35yIxuQmbcLZ-0"/>
                <mxCell id="bgdEapvP35yIxuQmbcLZ-14" style="edgeStyle=orthogonalEdgeStyle;rounded=0;orthogonalLoop=1;jettySize=auto;html=1;exitX=0.5;exitY=1;exitDx=0;exitDy=0;exitPerimeter=0;entryX=0.5;entryY=0;entryDx=0;entryDy=0;fontSize=17;" parent="bgdEapvP35yIxuQmbcLZ-1" source="bgdEapvP35yIxuQmbcLZ-2" target="bgdEapvP35yIxuQmbcLZ-3" edge="1">
                    <mxGeometry relative="1" as="geometry"/>
                </mxCell>
                <mxCell id="bgdEapvP35yIxuQmbcLZ-2" value="&lt;font style=&quot;font-size: 17px;&quot;&gt;Начало&lt;/font&gt;" style="strokeWidth=2;html=1;shape=mxgraph.flowchart.terminator;whiteSpace=wrap;fontSize=17;" parent="bgdEapvP35yIxuQmbcLZ-1" vertex="1">
                    <mxGeometry x="325" y="120" width="170" height="60" as="geometry"/>
                </mxCell>
                <mxCell id="bgdEapvP35yIxuQmbcLZ-15" style="edgeStyle=orthogonalEdgeStyle;rounded=0;orthogonalLoop=1;jettySize=auto;html=1;exitX=0.5;exitY=1;exitDx=0;exitDy=0;entryX=0.5;entryY=0;entryDx=0;entryDy=0;fontSize=17;" parent="bgdEapvP35yIxuQmbcLZ-1" source="bgdEapvP35yIxuQmbcLZ-3" target="bgdEapvP35yIxuQmbcLZ-4" edge="1">
                    <mxGeometry relative="1" as="geometry"/>
                </mxCell>
                <mxCell id="bgdEapvP35yIxuQmbcLZ-3" value="&lt;font style=&quot;font-size: 17px;&quot;&gt;Цикл по всем пикселям рассматриваемых объектов&lt;/font&gt;" style="shape=loopLimit;whiteSpace=wrap;html=1;strokeWidth=2;fontSize=17;" parent="bgdEapvP35yIxuQmbcLZ-1" vertex="1">
                    <mxGeometry x="316.5" y="197" width="179.5" height="80" as="geometry"/>
                </mxCell>
                <mxCell id="bgdEapvP35yIxuQmbcLZ-16" style="edgeStyle=orthogonalEdgeStyle;rounded=0;orthogonalLoop=1;jettySize=auto;html=1;exitX=0.5;exitY=1;exitDx=0;exitDy=0;entryX=0.5;entryY=0;entryDx=0;entryDy=0;entryPerimeter=0;fontSize=17;" parent="bgdEapvP35yIxuQmbcLZ-1" source="bgdEapvP35yIxuQmbcLZ-4" target="bgdEapvP35yIxuQmbcLZ-5" edge="1">
                    <mxGeometry relative="1" as="geometry"/>
                </mxCell>
                <mxCell id="bgdEapvP35yIxuQmbcLZ-4" value="&lt;font style=&quot;font-size: 17px;&quot;&gt;Создать луч&lt;/font&gt;" style="whiteSpace=wrap;html=1;strokeWidth=2;fontSize=17;" parent="bgdEapvP35yIxuQmbcLZ-1" vertex="1">
                    <mxGeometry x="317.5" y="294" width="177.5" height="70" as="geometry"/>
                </mxCell>
                <mxCell id="bgdEapvP35yIxuQmbcLZ-17" style="edgeStyle=orthogonalEdgeStyle;rounded=0;orthogonalLoop=1;jettySize=auto;html=1;exitX=1;exitY=0.5;exitDx=0;exitDy=0;exitPerimeter=0;entryX=0.5;entryY=0;entryDx=0;entryDy=0;fontSize=17;" parent="bgdEapvP35yIxuQmbcLZ-1" source="bgdEapvP35yIxuQmbcLZ-5" target="bgdEapvP35yIxuQmbcLZ-7" edge="1">
                    <mxGeometry relative="1" as="geometry">
                        <Array as="points">
                            <mxPoint x="589" y="430"/>
                        </Array>
                    </mxGeometry>
                </mxCell>
                <mxCell id="bgdEapvP35yIxuQmbcLZ-19" style="edgeStyle=orthogonalEdgeStyle;rounded=0;orthogonalLoop=1;jettySize=auto;html=1;exitX=0;exitY=0.5;exitDx=0;exitDy=0;exitPerimeter=0;entryX=0.5;entryY=0;entryDx=0;entryDy=0;fontSize=17;" parent="bgdEapvP35yIxuQmbcLZ-1" source="bgdEapvP35yIxuQmbcLZ-5" target="bgdEapvP35yIxuQmbcLZ-6" edge="1">
                    <mxGeometry relative="1" as="geometry"/>
                </mxCell>
                <mxCell id="bgdEapvP35yIxuQmbcLZ-5" value="&lt;font style=&quot;font-size: 17px;&quot;&gt;Луч пересекает &lt;br style=&quot;font-size: 17px;&quot;&gt;объект&lt;/font&gt;" style="strokeWidth=2;html=1;shape=mxgraph.flowchart.decision;whiteSpace=wrap;fontSize=17;" parent="bgdEapvP35yIxuQmbcLZ-1" vertex="1">
                    <mxGeometry x="305" y="380" width="200" height="100" as="geometry"/>
                </mxCell>
                <mxCell id="Q2DFsCuvQJtzNKZRsgEC-5" style="edgeStyle=orthogonalEdgeStyle;rounded=0;orthogonalLoop=1;jettySize=auto;html=1;exitX=0.5;exitY=1;exitDx=0;exitDy=0;fontSize=17;" parent="bgdEapvP35yIxuQmbcLZ-1" source="bgdEapvP35yIxuQmbcLZ-6" edge="1">
                    <mxGeometry relative="1" as="geometry">
                        <mxPoint x="214" y="598" as="targetPoint"/>
                    </mxGeometry>
                </mxCell>
                <mxCell id="bgdEapvP35yIxuQmbcLZ-6" value="&lt;font style=&quot;font-size: 17px;&quot;&gt;Цвет = цвет фона&lt;/font&gt;" style="whiteSpace=wrap;html=1;strokeWidth=2;fontSize=17;" parent="bgdEapvP35yIxuQmbcLZ-1" vertex="1">
                    <mxGeometry x="125" y="508" width="177.5" height="70" as="geometry"/>
                </mxCell>
                <mxCell id="Q2DFsCuvQJtzNKZRsgEC-3" style="edgeStyle=orthogonalEdgeStyle;rounded=0;orthogonalLoop=1;jettySize=auto;html=1;exitX=0.5;exitY=1;exitDx=0;exitDy=0;entryX=0.5;entryY=0;entryDx=0;entryDy=0;fontSize=17;" parent="bgdEapvP35yIxuQmbcLZ-1" source="bgdEapvP35yIxuQmbcLZ-7" target="bgdEapvP35yIxuQmbcLZ-8" edge="1">
                    <mxGeometry relative="1" as="geometry"/>
                </mxCell>
                <mxCell id="bgdEapvP35yIxuQmbcLZ-7" value="&lt;font style=&quot;font-size: 17px;&quot;&gt;Проверить тени и отражения&lt;/font&gt;" style="whiteSpace=wrap;html=1;strokeWidth=2;fontSize=17;" parent="bgdEapvP35yIxuQmbcLZ-1" vertex="1">
                    <mxGeometry x="500" y="444" width="177.5" height="70" as="geometry"/>
                </mxCell>
                <mxCell id="Q2DFsCuvQJtzNKZRsgEC-6" style="edgeStyle=orthogonalEdgeStyle;rounded=0;orthogonalLoop=1;jettySize=auto;html=1;exitX=0.5;exitY=1;exitDx=0;exitDy=0;entryX=0.5;entryY=0;entryDx=0;entryDy=0;fontSize=17;" parent="bgdEapvP35yIxuQmbcLZ-1" source="bgdEapvP35yIxuQmbcLZ-8" target="Q2DFsCuvQJtzNKZRsgEC-4" edge="1">
                    <mxGeometry relative="1" as="geometry"/>
                </mxCell>
                <mxCell id="bgdEapvP35yIxuQmbcLZ-8" value="&lt;span style=&quot;font-size: 17px;&quot;&gt;Вычислить цвет&lt;/span&gt;" style="whiteSpace=wrap;html=1;strokeWidth=2;fontSize=17;" parent="bgdEapvP35yIxuQmbcLZ-1" vertex="1">
                    <mxGeometry x="500" y="529" width="177.5" height="70" as="geometry"/>
                </mxCell>
                <mxCell id="bgdEapvP35yIxuQmbcLZ-23" style="edgeStyle=orthogonalEdgeStyle;rounded=0;orthogonalLoop=1;jettySize=auto;html=1;exitX=0.5;exitY=1;exitDx=0;exitDy=0;entryX=0.5;entryY=1;entryDx=0;entryDy=0;fontSize=17;" parent="bgdEapvP35yIxuQmbcLZ-1" source="bgdEapvP35yIxuQmbcLZ-9" target="bgdEapvP35yIxuQmbcLZ-10" edge="1">
                    <mxGeometry relative="1" as="geometry"/>
                </mxCell>
                <mxCell id="bgdEapvP35yIxuQmbcLZ-9" value="&lt;font style=&quot;font-size: 17px;&quot;&gt;Закрасить текущий пиксель полученным цветом&lt;/font&gt;" style="whiteSpace=wrap;html=1;strokeWidth=2;fontSize=17;" parent="bgdEapvP35yIxuQmbcLZ-1" vertex="1">
                    <mxGeometry x="317.5" y="841" width="177.5" height="70" as="geometry"/>
                </mxCell>
                <mxCell id="bgdEapvP35yIxuQmbcLZ-12" value="" style="group;fontSize=17;" parent="bgdEapvP35yIxuQmbcLZ-1" vertex="1" connectable="0">
                    <mxGeometry x="310" y="952" width="205.25" height="71" as="geometry"/>
                </mxCell>
                <mxCell id="bgdEapvP35yIxuQmbcLZ-10" value="" style="shape=loopLimit;whiteSpace=wrap;html=1;strokeWidth=2;rotation=-180;fontSize=17;" parent="bgdEapvP35yIxuQmbcLZ-12" vertex="1">
                    <mxGeometry width="191.56666666666666" height="71" as="geometry"/>
                </mxCell>
                <mxCell id="bgdEapvP35yIxuQmbcLZ-11" value="&lt;span style=&quot;font-size: 17px; background-color: rgb(255, 255, 255);&quot;&gt;Цикл по всем пикселям&lt;br style=&quot;font-size: 17px;&quot;&gt;&amp;nbsp;рассматриваемых &lt;br style=&quot;font-size: 17px;&quot;&gt;объектов&lt;/span&gt;" style="text;html=1;align=center;verticalAlign=middle;resizable=0;points=[];autosize=1;fontSize=17;" parent="bgdEapvP35yIxuQmbcLZ-12" vertex="1">
                    <mxGeometry x="-3.4300000000000006" y="7.001428571428571" width="195" height="64" as="geometry"/>
                </mxCell>
                <mxCell id="bgdEapvP35yIxuQmbcLZ-13" value="&lt;font style=&quot;font-size: 17px;&quot;&gt;Конец&lt;/font&gt;" style="strokeWidth=2;html=1;shape=mxgraph.flowchart.terminator;whiteSpace=wrap;fontSize=17;" parent="bgdEapvP35yIxuQmbcLZ-1" vertex="1">
                    <mxGeometry x="321.25" y="1053" width="170" height="60" as="geometry"/>
                </mxCell>
                <mxCell id="bgdEapvP35yIxuQmbcLZ-24" style="edgeStyle=orthogonalEdgeStyle;rounded=0;orthogonalLoop=1;jettySize=auto;html=1;exitX=0.5;exitY=0;exitDx=0;exitDy=0;fontSize=17;" parent="bgdEapvP35yIxuQmbcLZ-1" source="bgdEapvP35yIxuQmbcLZ-10" target="bgdEapvP35yIxuQmbcLZ-13" edge="1">
                    <mxGeometry relative="1" as="geometry"/>
                </mxCell>
                <mxCell id="Q2DFsCuvQJtzNKZRsgEC-7" style="edgeStyle=orthogonalEdgeStyle;rounded=0;orthogonalLoop=1;jettySize=auto;html=1;exitX=0.5;exitY=1;exitDx=0;exitDy=0;fontSize=17;" parent="bgdEapvP35yIxuQmbcLZ-1" source="Q2DFsCuvQJtzNKZRsgEC-1" edge="1">
                    <mxGeometry relative="1" as="geometry">
                        <mxPoint x="410" y="839" as="targetPoint"/>
                    </mxGeometry>
                </mxCell>
                <mxCell id="Q2DFsCuvQJtzNKZRsgEC-1" value="А" style="ellipse;whiteSpace=wrap;html=1;aspect=fixed;fontSize=17;" parent="bgdEapvP35yIxuQmbcLZ-1" vertex="1">
                    <mxGeometry x="370" y="742" width="80" height="80" as="geometry"/>
                </mxCell>
                <mxCell id="Q2DFsCuvQJtzNKZRsgEC-2" value="А" style="ellipse;whiteSpace=wrap;html=1;aspect=fixed;fontSize=17;" parent="bgdEapvP35yIxuQmbcLZ-1" vertex="1">
                    <mxGeometry x="173.75" y="599" width="80" height="80" as="geometry"/>
                </mxCell>
                <mxCell id="Q2DFsCuvQJtzNKZRsgEC-4" value="А" style="ellipse;whiteSpace=wrap;html=1;aspect=fixed;fontSize=17;" parent="bgdEapvP35yIxuQmbcLZ-1" vertex="1">
                    <mxGeometry x="548.75" y="614" width="80" height="80" as="geometry"/>
                </mxCell>
            </root>
        </mxGraphModel>
    </diagram>
    <diagram id="GaFUICi-uNpEYLuQXgge" name="Страница 3">
        <mxGraphModel dx="1113" dy="501" grid="1" gridSize="10" guides="1" tooltips="1" connect="1" arrows="1" fold="1" page="1" pageScale="1" pageWidth="1169" pageHeight="1654" math="0" shadow="0">
            <root>
                <mxCell id="Y9P6SmRl7BAimk-OyJ90-0"/>
                <mxCell id="Y9P6SmRl7BAimk-OyJ90-1" parent="Y9P6SmRl7BAimk-OyJ90-0"/>
                <mxCell id="Y9P6SmRl7BAimk-OyJ90-2" value="Texture" style="swimlane;fontStyle=1;align=center;verticalAlign=top;childLayout=stackLayout;horizontal=1;startSize=26;horizontalStack=0;resizeParent=1;resizeParentMax=0;resizeLast=0;collapsible=1;marginBottom=0;" parent="Y9P6SmRl7BAimk-OyJ90-1" vertex="1">
                    <mxGeometry x="571" y="734.99" width="160" height="86" as="geometry"/>
                </mxCell>
                <mxCell id="Y9P6SmRl7BAimk-OyJ90-3" value="TextureType" style="text;strokeColor=none;fillColor=none;align=left;verticalAlign=top;spacingLeft=4;spacingRight=4;overflow=hidden;rotatable=0;points=[[0,0.5],[1,0.5]];portConstraint=eastwest;" parent="Y9P6SmRl7BAimk-OyJ90-2" vertex="1">
                    <mxGeometry y="26" width="160" height="26" as="geometry"/>
                </mxCell>
                <mxCell id="Y9P6SmRl7BAimk-OyJ90-4" value="" style="line;strokeWidth=1;fillColor=none;align=left;verticalAlign=middle;spacingTop=-1;spacingLeft=3;spacingRight=3;rotatable=0;labelPosition=right;points=[];portConstraint=eastwest;" parent="Y9P6SmRl7BAimk-OyJ90-2" vertex="1">
                    <mxGeometry y="52" width="160" height="8" as="geometry"/>
                </mxCell>
                <mxCell id="Y9P6SmRl7BAimk-OyJ90-5" value="Class" style="text;strokeColor=none;fillColor=none;align=left;verticalAlign=top;spacingLeft=4;spacingRight=4;overflow=hidden;rotatable=0;points=[[0,0.5],[1,0.5]];portConstraint=eastwest;" parent="Y9P6SmRl7BAimk-OyJ90-2" vertex="1">
                    <mxGeometry y="60" width="160" height="26" as="geometry"/>
                </mxCell>
                <mxCell id="Y9P6SmRl7BAimk-OyJ90-6" style="edgeStyle=orthogonalEdgeStyle;rounded=0;orthogonalLoop=1;jettySize=auto;html=1;exitX=0;exitY=0.25;exitDx=0;exitDy=0;entryX=0.5;entryY=0;entryDx=0;entryDy=0;" parent="Y9P6SmRl7BAimk-OyJ90-1" source="Y9P6SmRl7BAimk-OyJ90-7" target="Y9P6SmRl7BAimk-OyJ90-2" edge="1">
                    <mxGeometry relative="1" as="geometry">
                        <Array as="points">
                            <mxPoint x="531" y="634.99"/>
                            <mxPoint x="531" y="714.99"/>
                            <mxPoint x="651" y="714.99"/>
                        </Array>
                    </mxGeometry>
                </mxCell>
                <mxCell id="Y9P6SmRl7BAimk-OyJ90-7" value="SimpleTexture" style="swimlane;fontStyle=1;align=center;verticalAlign=top;childLayout=stackLayout;horizontal=1;startSize=26;horizontalStack=0;resizeParent=1;resizeParentMax=0;resizeLast=0;collapsible=1;marginBottom=0;" parent="Y9P6SmRl7BAimk-OyJ90-1" vertex="1">
                    <mxGeometry x="571" y="612.99" width="160" height="86" as="geometry"/>
                </mxCell>
                <mxCell id="Y9P6SmRl7BAimk-OyJ90-8" value="" style="line;strokeWidth=1;fillColor=none;align=left;verticalAlign=middle;spacingTop=-1;spacingLeft=3;spacingRight=3;rotatable=0;labelPosition=right;points=[];portConstraint=eastwest;" parent="Y9P6SmRl7BAimk-OyJ90-7" vertex="1">
                    <mxGeometry y="26" width="160" height="8" as="geometry"/>
                </mxCell>
                <mxCell id="Y9P6SmRl7BAimk-OyJ90-9" value="SimpleTexture" style="text;strokeColor=none;fillColor=none;align=left;verticalAlign=top;spacingLeft=4;spacingRight=4;overflow=hidden;rotatable=0;points=[[0,0.5],[1,0.5]];portConstraint=eastwest;" parent="Y9P6SmRl7BAimk-OyJ90-7" vertex="1">
                    <mxGeometry y="34" width="160" height="26" as="geometry"/>
                </mxCell>
                <mxCell id="Y9P6SmRl7BAimk-OyJ90-10" value="DrawTexture" style="text;strokeColor=none;fillColor=none;align=left;verticalAlign=top;spacingLeft=4;spacingRight=4;overflow=hidden;rotatable=0;points=[[0,0.5],[1,0.5]];portConstraint=eastwest;" parent="Y9P6SmRl7BAimk-OyJ90-7" vertex="1">
                    <mxGeometry y="60" width="160" height="26" as="geometry"/>
                </mxCell>
                <mxCell id="Y9P6SmRl7BAimk-OyJ90-11" value="Scene" style="swimlane;fontStyle=1;align=center;verticalAlign=top;childLayout=stackLayout;horizontal=1;startSize=26;horizontalStack=0;resizeParent=1;resizeParentMax=0;resizeLast=0;collapsible=1;marginBottom=0;" parent="Y9P6SmRl7BAimk-OyJ90-1" vertex="1">
                    <mxGeometry x="141" y="448.99" width="160" height="398" as="geometry">
                        <mxRectangle x="100" y="350" width="70" height="26" as="alternateBounds"/>
                    </mxGeometry>
                </mxCell>
                <mxCell id="Y9P6SmRl7BAimk-OyJ90-12" value="" style="line;strokeWidth=1;fillColor=none;align=left;verticalAlign=middle;spacingTop=-1;spacingLeft=3;spacingRight=3;rotatable=0;labelPosition=right;points=[];portConstraint=eastwest;" parent="Y9P6SmRl7BAimk-OyJ90-11" vertex="1">
                    <mxGeometry y="26" width="160" height="8" as="geometry"/>
                </mxCell>
                <mxCell id="Y9P6SmRl7BAimk-OyJ90-13" value="Scene" style="text;strokeColor=none;fillColor=none;align=left;verticalAlign=top;spacingLeft=4;spacingRight=4;overflow=hidden;rotatable=0;points=[[0,0.5],[1,0.5]];portConstraint=eastwest;" parent="Y9P6SmRl7BAimk-OyJ90-11" vertex="1">
                    <mxGeometry y="34" width="160" height="26" as="geometry"/>
                </mxCell>
                <mxCell id="Y9P6SmRl7BAimk-OyJ90-14" value="DrawHouse" style="text;strokeColor=none;fillColor=none;align=left;verticalAlign=top;spacingLeft=4;spacingRight=4;overflow=hidden;rotatable=0;points=[[0,0.5],[1,0.5]];portConstraint=eastwest;" parent="Y9P6SmRl7BAimk-OyJ90-11" vertex="1">
                    <mxGeometry y="60" width="160" height="26" as="geometry"/>
                </mxCell>
                <mxCell id="Y9P6SmRl7BAimk-OyJ90-15" value="DrawShadow" style="text;strokeColor=none;fillColor=none;align=left;verticalAlign=top;spacingLeft=4;spacingRight=4;overflow=hidden;rotatable=0;points=[[0,0.5],[1,0.5]];portConstraint=eastwest;" parent="Y9P6SmRl7BAimk-OyJ90-11" vertex="1">
                    <mxGeometry y="86" width="160" height="26" as="geometry"/>
                </mxCell>
                <mxCell id="Y9P6SmRl7BAimk-OyJ90-16" value="DrawSky" style="text;strokeColor=none;fillColor=none;align=left;verticalAlign=top;spacingLeft=4;spacingRight=4;overflow=hidden;rotatable=0;points=[[0,0.5],[1,0.5]];portConstraint=eastwest;" parent="Y9P6SmRl7BAimk-OyJ90-11" vertex="1">
                    <mxGeometry y="112" width="160" height="26" as="geometry"/>
                </mxCell>
                <mxCell id="Y9P6SmRl7BAimk-OyJ90-17" value="DrawEarth" style="text;strokeColor=none;fillColor=none;align=left;verticalAlign=top;spacingLeft=4;spacingRight=4;overflow=hidden;rotatable=0;points=[[0,0.5],[1,0.5]];portConstraint=eastwest;" parent="Y9P6SmRl7BAimk-OyJ90-11" vertex="1">
                    <mxGeometry y="138" width="160" height="26" as="geometry"/>
                </mxCell>
                <mxCell id="Y9P6SmRl7BAimk-OyJ90-18" value="DrawLightning" style="text;strokeColor=none;fillColor=none;align=left;verticalAlign=top;spacingLeft=4;spacingRight=4;overflow=hidden;rotatable=0;points=[[0,0.5],[1,0.5]];portConstraint=eastwest;" parent="Y9P6SmRl7BAimk-OyJ90-11" vertex="1">
                    <mxGeometry y="164" width="160" height="26" as="geometry"/>
                </mxCell>
                <mxCell id="Y9P6SmRl7BAimk-OyJ90-19" value="LightOn" style="text;strokeColor=none;fillColor=none;align=left;verticalAlign=top;spacingLeft=4;spacingRight=4;overflow=hidden;rotatable=0;points=[[0,0.5],[1,0.5]];portConstraint=eastwest;" parent="Y9P6SmRl7BAimk-OyJ90-11" vertex="1">
                    <mxGeometry y="190" width="160" height="26" as="geometry"/>
                </mxCell>
                <mxCell id="Y9P6SmRl7BAimk-OyJ90-20" value="LightOff" style="text;strokeColor=none;fillColor=none;align=left;verticalAlign=top;spacingLeft=4;spacingRight=4;overflow=hidden;rotatable=0;points=[[0,0.5],[1,0.5]];portConstraint=eastwest;" parent="Y9P6SmRl7BAimk-OyJ90-11" vertex="1">
                    <mxGeometry y="216" width="160" height="26" as="geometry"/>
                </mxCell>
                <mxCell id="Y9P6SmRl7BAimk-OyJ90-21" value="Click" style="text;strokeColor=none;fillColor=none;align=left;verticalAlign=top;spacingLeft=4;spacingRight=4;overflow=hidden;rotatable=0;points=[[0,0.5],[1,0.5]];portConstraint=eastwest;" parent="Y9P6SmRl7BAimk-OyJ90-11" vertex="1">
                    <mxGeometry y="242" width="160" height="26" as="geometry"/>
                </mxCell>
                <mxCell id="Y9P6SmRl7BAimk-OyJ90-22" value="Move" style="text;strokeColor=none;fillColor=none;align=left;verticalAlign=top;spacingLeft=4;spacingRight=4;overflow=hidden;rotatable=0;points=[[0,0.5],[1,0.5]];portConstraint=eastwest;" parent="Y9P6SmRl7BAimk-OyJ90-11" vertex="1">
                    <mxGeometry y="268" width="160" height="26" as="geometry"/>
                </mxCell>
                <mxCell id="Y9P6SmRl7BAimk-OyJ90-23" value="Trace" style="text;strokeColor=none;fillColor=none;align=left;verticalAlign=top;spacingLeft=4;spacingRight=4;overflow=hidden;rotatable=0;points=[[0,0.5],[1,0.5]];portConstraint=eastwest;" parent="Y9P6SmRl7BAimk-OyJ90-11" vertex="1">
                    <mxGeometry y="294" width="160" height="26" as="geometry"/>
                </mxCell>
                <mxCell id="Y9P6SmRl7BAimk-OyJ90-24" value="Button" style="text;strokeColor=none;fillColor=none;align=left;verticalAlign=top;spacingLeft=4;spacingRight=4;overflow=hidden;rotatable=0;points=[[0,0.5],[1,0.5]];portConstraint=eastwest;" parent="Y9P6SmRl7BAimk-OyJ90-11" vertex="1">
                    <mxGeometry y="320" width="160" height="26" as="geometry"/>
                </mxCell>
                <mxCell id="Y9P6SmRl7BAimk-OyJ90-25" value="DrawScene" style="text;strokeColor=none;fillColor=none;align=left;verticalAlign=top;spacingLeft=4;spacingRight=4;overflow=hidden;rotatable=0;points=[[0,0.5],[1,0.5]];portConstraint=eastwest;" parent="Y9P6SmRl7BAimk-OyJ90-11" vertex="1">
                    <mxGeometry y="346" width="160" height="26" as="geometry"/>
                </mxCell>
                <mxCell id="Y9P6SmRl7BAimk-OyJ90-26" value="FLoarChange" style="text;strokeColor=none;fillColor=none;align=left;verticalAlign=top;spacingLeft=4;spacingRight=4;overflow=hidden;rotatable=0;points=[[0,0.5],[1,0.5]];portConstraint=eastwest;" parent="Y9P6SmRl7BAimk-OyJ90-11" vertex="1">
                    <mxGeometry y="372" width="160" height="26" as="geometry"/>
                </mxCell>
                <mxCell id="Y9P6SmRl7BAimk-OyJ90-27" value="Window&#10;" style="swimlane;fontStyle=1;align=center;verticalAlign=top;childLayout=stackLayout;horizontal=1;startSize=26;horizontalStack=0;resizeParent=1;resizeParentMax=0;resizeLast=0;collapsible=1;marginBottom=0;" parent="Y9P6SmRl7BAimk-OyJ90-1" vertex="1">
                    <mxGeometry x="351" y="1011" width="160" height="138" as="geometry"/>
                </mxCell>
                <mxCell id="Y9P6SmRl7BAimk-OyJ90-28" value="" style="line;strokeWidth=1;fillColor=none;align=left;verticalAlign=middle;spacingTop=-1;spacingLeft=3;spacingRight=3;rotatable=0;labelPosition=right;points=[];portConstraint=eastwest;" parent="Y9P6SmRl7BAimk-OyJ90-27" vertex="1">
                    <mxGeometry y="26" width="160" height="8" as="geometry"/>
                </mxCell>
                <mxCell id="Y9P6SmRl7BAimk-OyJ90-29" value="Window" style="text;strokeColor=none;fillColor=none;align=left;verticalAlign=top;spacingLeft=4;spacingRight=4;overflow=hidden;rotatable=0;points=[[0,0.5],[1,0.5]];portConstraint=eastwest;" parent="Y9P6SmRl7BAimk-OyJ90-27" vertex="1">
                    <mxGeometry y="34" width="160" height="26" as="geometry"/>
                </mxCell>
                <mxCell id="Y9P6SmRl7BAimk-OyJ90-30" value="TurnW" style="text;strokeColor=none;fillColor=none;align=left;verticalAlign=top;spacingLeft=4;spacingRight=4;overflow=hidden;rotatable=0;points=[[0,0.5],[1,0.5]];portConstraint=eastwest;" parent="Y9P6SmRl7BAimk-OyJ90-27" vertex="1">
                    <mxGeometry y="60" width="160" height="26" as="geometry"/>
                </mxCell>
                <mxCell id="Y9P6SmRl7BAimk-OyJ90-31" value="DrawWindow" style="text;strokeColor=none;fillColor=none;align=left;verticalAlign=top;spacingLeft=4;spacingRight=4;overflow=hidden;rotatable=0;points=[[0,0.5],[1,0.5]];portConstraint=eastwest;" parent="Y9P6SmRl7BAimk-OyJ90-27" vertex="1">
                    <mxGeometry y="86" width="160" height="26" as="geometry"/>
                </mxCell>
                <mxCell id="Y9P6SmRl7BAimk-OyJ90-32" value="ToPolygon" style="text;strokeColor=none;fillColor=none;align=left;verticalAlign=top;spacingLeft=4;spacingRight=4;overflow=hidden;rotatable=0;points=[[0,0.5],[1,0.5]];portConstraint=eastwest;" parent="Y9P6SmRl7BAimk-OyJ90-27" vertex="1">
                    <mxGeometry y="112" width="160" height="26" as="geometry"/>
                </mxCell>
                <mxCell id="Y9P6SmRl7BAimk-OyJ90-33" style="edgeStyle=orthogonalEdgeStyle;rounded=0;orthogonalLoop=1;jettySize=auto;html=1;exitX=1;exitY=0.25;exitDx=0;exitDy=0;entryX=0;entryY=0.25;entryDx=0;entryDy=0;" parent="Y9P6SmRl7BAimk-OyJ90-1" source="Y9P6SmRl7BAimk-OyJ90-34" target="Y9P6SmRl7BAimk-OyJ90-27" edge="1">
                    <mxGeometry relative="1" as="geometry">
                        <Array as="points">
                            <mxPoint x="271" y="1045"/>
                            <mxPoint x="351" y="1045"/>
                        </Array>
                    </mxGeometry>
                </mxCell>
                <mxCell id="Y9P6SmRl7BAimk-OyJ90-34" value="House" style="swimlane;fontStyle=1;align=center;verticalAlign=top;childLayout=stackLayout;horizontal=1;startSize=26;horizontalStack=0;resizeParent=1;resizeParentMax=0;resizeLast=0;collapsible=1;marginBottom=0;" parent="Y9P6SmRl7BAimk-OyJ90-1" vertex="1">
                    <mxGeometry x="111" y="921" width="160" height="248" as="geometry"/>
                </mxCell>
                <mxCell id="Y9P6SmRl7BAimk-OyJ90-35" value="" style="line;strokeWidth=1;fillColor=none;align=left;verticalAlign=middle;spacingTop=-1;spacingLeft=3;spacingRight=3;rotatable=0;labelPosition=right;points=[];portConstraint=eastwest;" parent="Y9P6SmRl7BAimk-OyJ90-34" vertex="1">
                    <mxGeometry y="26" width="160" height="14" as="geometry"/>
                </mxCell>
                <mxCell id="Y9P6SmRl7BAimk-OyJ90-36" value="Side" style="text;strokeColor=none;fillColor=none;align=left;verticalAlign=top;spacingLeft=4;spacingRight=4;overflow=hidden;rotatable=0;points=[[0,0.5],[1,0.5]];portConstraint=eastwest;" parent="Y9P6SmRl7BAimk-OyJ90-34" vertex="1">
                    <mxGeometry y="40" width="160" height="26" as="geometry"/>
                </mxCell>
                <mxCell id="Y9P6SmRl7BAimk-OyJ90-37" value="House" style="text;strokeColor=none;fillColor=none;align=left;verticalAlign=top;spacingLeft=4;spacingRight=4;overflow=hidden;rotatable=0;points=[[0,0.5],[1,0.5]];portConstraint=eastwest;" parent="Y9P6SmRl7BAimk-OyJ90-34" vertex="1">
                    <mxGeometry y="66" width="160" height="26" as="geometry"/>
                </mxCell>
                <mxCell id="Y9P6SmRl7BAimk-OyJ90-38" value="WindowsCreate" style="text;strokeColor=none;fillColor=none;align=left;verticalAlign=top;spacingLeft=4;spacingRight=4;overflow=hidden;rotatable=0;points=[[0,0.5],[1,0.5]];portConstraint=eastwest;" parent="Y9P6SmRl7BAimk-OyJ90-34" vertex="1">
                    <mxGeometry y="92" width="160" height="26" as="geometry"/>
                </mxCell>
                <mxCell id="Y9P6SmRl7BAimk-OyJ90-39" value="TraceM" style="text;strokeColor=none;fillColor=none;align=left;verticalAlign=top;spacingLeft=4;spacingRight=4;overflow=hidden;rotatable=0;points=[[0,0.5],[1,0.5]];portConstraint=eastwest;" parent="Y9P6SmRl7BAimk-OyJ90-34" vertex="1">
                    <mxGeometry y="118" width="160" height="26" as="geometry"/>
                </mxCell>
                <mxCell id="Y9P6SmRl7BAimk-OyJ90-40" value="Color" style="text;strokeColor=none;fillColor=none;align=left;verticalAlign=top;spacingLeft=4;spacingRight=4;overflow=hidden;rotatable=0;points=[[0,0.5],[1,0.5]];portConstraint=eastwest;" parent="Y9P6SmRl7BAimk-OyJ90-34" vertex="1">
                    <mxGeometry y="144" width="160" height="26" as="geometry"/>
                </mxCell>
                <mxCell id="Y9P6SmRl7BAimk-OyJ90-41" value="TurnHouse" style="text;strokeColor=none;fillColor=none;align=left;verticalAlign=top;spacingLeft=4;spacingRight=4;overflow=hidden;rotatable=0;points=[[0,0.5],[1,0.5]];portConstraint=eastwest;" parent="Y9P6SmRl7BAimk-OyJ90-34" vertex="1">
                    <mxGeometry y="170" width="160" height="26" as="geometry"/>
                </mxCell>
                <mxCell id="Y9P6SmRl7BAimk-OyJ90-42" value="DrawWindow" style="text;strokeColor=none;fillColor=none;align=left;verticalAlign=top;spacingLeft=4;spacingRight=4;overflow=hidden;rotatable=0;points=[[0,0.5],[1,0.5]];portConstraint=eastwest;" parent="Y9P6SmRl7BAimk-OyJ90-34" vertex="1">
                    <mxGeometry y="196" width="160" height="26" as="geometry"/>
                </mxCell>
                <mxCell id="Y9P6SmRl7BAimk-OyJ90-43" value="DrawHouse" style="text;strokeColor=none;fillColor=none;align=left;verticalAlign=top;spacingLeft=4;spacingRight=4;overflow=hidden;rotatable=0;points=[[0,0.5],[1,0.5]];portConstraint=eastwest;" parent="Y9P6SmRl7BAimk-OyJ90-34" vertex="1">
                    <mxGeometry y="222" width="160" height="26" as="geometry"/>
                </mxCell>
                <mxCell id="Y9P6SmRl7BAimk-OyJ90-44" value="Lightning" style="swimlane;fontStyle=1;align=center;verticalAlign=top;childLayout=stackLayout;horizontal=1;startSize=26;horizontalStack=0;resizeParent=1;resizeParentMax=0;resizeLast=0;collapsible=1;marginBottom=0;" parent="Y9P6SmRl7BAimk-OyJ90-1" vertex="1">
                    <mxGeometry x="791" y="698.99" width="160" height="242" as="geometry"/>
                </mxCell>
                <mxCell id="Y9P6SmRl7BAimk-OyJ90-45" value="Model" style="text;strokeColor=none;fillColor=none;align=left;verticalAlign=top;spacingLeft=4;spacingRight=4;overflow=hidden;rotatable=0;points=[[0,0.5],[1,0.5]];portConstraint=eastwest;" parent="Y9P6SmRl7BAimk-OyJ90-44" vertex="1">
                    <mxGeometry y="26" width="160" height="26" as="geometry"/>
                </mxCell>
                <mxCell id="Y9P6SmRl7BAimk-OyJ90-46" value="SubModels" style="text;strokeColor=none;fillColor=none;align=left;verticalAlign=top;spacingLeft=4;spacingRight=4;overflow=hidden;rotatable=0;points=[[0,0.5],[1,0.5]];portConstraint=eastwest;" parent="Y9P6SmRl7BAimk-OyJ90-44" vertex="1">
                    <mxGeometry y="52" width="160" height="26" as="geometry"/>
                </mxCell>
                <mxCell id="Y9P6SmRl7BAimk-OyJ90-47" value="" style="line;strokeWidth=1;fillColor=none;align=left;verticalAlign=middle;spacingTop=-1;spacingLeft=3;spacingRight=3;rotatable=0;labelPosition=right;points=[];portConstraint=eastwest;" parent="Y9P6SmRl7BAimk-OyJ90-44" vertex="1">
                    <mxGeometry y="78" width="160" height="8" as="geometry"/>
                </mxCell>
                <mxCell id="Y9P6SmRl7BAimk-OyJ90-48" value="Lightning" style="text;strokeColor=none;fillColor=none;align=left;verticalAlign=top;spacingLeft=4;spacingRight=4;overflow=hidden;rotatable=0;points=[[0,0.5],[1,0.5]];portConstraint=eastwest;" parent="Y9P6SmRl7BAimk-OyJ90-44" vertex="1">
                    <mxGeometry y="86" width="160" height="26" as="geometry"/>
                </mxCell>
                <mxCell id="Y9P6SmRl7BAimk-OyJ90-49" value="TraceM" style="text;strokeColor=none;fillColor=none;align=left;verticalAlign=top;spacingLeft=4;spacingRight=4;overflow=hidden;rotatable=0;points=[[0,0.5],[1,0.5]];portConstraint=eastwest;" parent="Y9P6SmRl7BAimk-OyJ90-44" vertex="1">
                    <mxGeometry y="112" width="160" height="26" as="geometry"/>
                </mxCell>
                <mxCell id="Y9P6SmRl7BAimk-OyJ90-50" value="TurnLightning" style="text;strokeColor=none;fillColor=none;align=left;verticalAlign=top;spacingLeft=4;spacingRight=4;overflow=hidden;rotatable=0;points=[[0,0.5],[1,0.5]];portConstraint=eastwest;" parent="Y9P6SmRl7BAimk-OyJ90-44" vertex="1">
                    <mxGeometry y="138" width="160" height="26" as="geometry"/>
                </mxCell>
                <mxCell id="Y9P6SmRl7BAimk-OyJ90-51" value="ScaleLightning" style="text;strokeColor=none;fillColor=none;align=left;verticalAlign=top;spacingLeft=4;spacingRight=4;overflow=hidden;rotatable=0;points=[[0,0.5],[1,0.5]];portConstraint=eastwest;" parent="Y9P6SmRl7BAimk-OyJ90-44" vertex="1">
                    <mxGeometry y="164" width="160" height="26" as="geometry"/>
                </mxCell>
                <mxCell id="Y9P6SmRl7BAimk-OyJ90-52" value="DrawLightning" style="text;strokeColor=none;fillColor=none;align=left;verticalAlign=top;spacingLeft=4;spacingRight=4;overflow=hidden;rotatable=0;points=[[0,0.5],[1,0.5]];portConstraint=eastwest;" parent="Y9P6SmRl7BAimk-OyJ90-44" vertex="1">
                    <mxGeometry y="190" width="160" height="26" as="geometry"/>
                </mxCell>
                <mxCell id="Y9P6SmRl7BAimk-OyJ90-53" value="DrawArea" style="text;strokeColor=none;fillColor=none;align=left;verticalAlign=top;spacingLeft=4;spacingRight=4;overflow=hidden;rotatable=0;points=[[0,0.5],[1,0.5]];portConstraint=eastwest;" parent="Y9P6SmRl7BAimk-OyJ90-44" vertex="1">
                    <mxGeometry y="216" width="160" height="26" as="geometry"/>
                </mxCell>
                <mxCell id="Y9P6SmRl7BAimk-OyJ90-54" style="edgeStyle=orthogonalEdgeStyle;rounded=0;orthogonalLoop=1;jettySize=auto;html=1;exitX=1;exitY=0.25;exitDx=0;exitDy=0;" parent="Y9P6SmRl7BAimk-OyJ90-1" source="Y9P6SmRl7BAimk-OyJ90-55" target="Y9P6SmRl7BAimk-OyJ90-34" edge="1">
                    <mxGeometry relative="1" as="geometry">
                        <Array as="points">
                            <mxPoint x="521" y="457"/>
                            <mxPoint x="521" y="896"/>
                            <mxPoint x="191" y="896"/>
                        </Array>
                    </mxGeometry>
                </mxCell>
                <mxCell id="Y9P6SmRl7BAimk-OyJ90-55" value="Shadow" style="swimlane;fontStyle=1;align=center;verticalAlign=top;childLayout=stackLayout;horizontal=1;startSize=26;horizontalStack=0;resizeParent=1;resizeParentMax=0;resizeLast=0;collapsible=1;marginBottom=0;" parent="Y9P6SmRl7BAimk-OyJ90-1" vertex="1">
                    <mxGeometry x="341" y="434.99" width="160" height="86" as="geometry"/>
                </mxCell>
                <mxCell id="Y9P6SmRl7BAimk-OyJ90-56" value="" style="line;strokeWidth=1;fillColor=none;align=left;verticalAlign=middle;spacingTop=-1;spacingLeft=3;spacingRight=3;rotatable=0;labelPosition=right;points=[];portConstraint=eastwest;" parent="Y9P6SmRl7BAimk-OyJ90-55" vertex="1">
                    <mxGeometry y="26" width="160" height="8" as="geometry"/>
                </mxCell>
                <mxCell id="Y9P6SmRl7BAimk-OyJ90-57" value="Shadow" style="text;strokeColor=none;fillColor=none;align=left;verticalAlign=top;spacingLeft=4;spacingRight=4;overflow=hidden;rotatable=0;points=[[0,0.5],[1,0.5]];portConstraint=eastwest;" parent="Y9P6SmRl7BAimk-OyJ90-55" vertex="1">
                    <mxGeometry y="34" width="160" height="26" as="geometry"/>
                </mxCell>
                <mxCell id="Y9P6SmRl7BAimk-OyJ90-58" value="DrawShadow" style="text;strokeColor=none;fillColor=none;align=left;verticalAlign=top;spacingLeft=4;spacingRight=4;overflow=hidden;rotatable=0;points=[[0,0.5],[1,0.5]];portConstraint=eastwest;" parent="Y9P6SmRl7BAimk-OyJ90-55" vertex="1">
                    <mxGeometry y="60" width="160" height="26" as="geometry"/>
                </mxCell>
                <mxCell id="Y9P6SmRl7BAimk-OyJ90-59" style="edgeStyle=orthogonalEdgeStyle;rounded=0;orthogonalLoop=1;jettySize=auto;html=1;exitX=0;exitY=0.25;exitDx=0;exitDy=0;entryX=0.5;entryY=0;entryDx=0;entryDy=0;" parent="Y9P6SmRl7BAimk-OyJ90-1" source="Y9P6SmRl7BAimk-OyJ90-85" target="Y9P6SmRl7BAimk-OyJ90-27" edge="1">
                    <mxGeometry relative="1" as="geometry">
                        <Array as="points">
                            <mxPoint x="551" y="937"/>
                            <mxPoint x="431" y="937"/>
                        </Array>
                    </mxGeometry>
                </mxCell>
                <mxCell id="Y9P6SmRl7BAimk-OyJ90-60" style="edgeStyle=orthogonalEdgeStyle;rounded=0;orthogonalLoop=1;jettySize=auto;html=1;exitX=0;exitY=0.25;exitDx=0;exitDy=0;entryX=0.75;entryY=0;entryDx=0;entryDy=0;" parent="Y9P6SmRl7BAimk-OyJ90-1" source="Y9P6SmRl7BAimk-OyJ90-61" target="Y9P6SmRl7BAimk-OyJ90-44" edge="1">
                    <mxGeometry relative="1" as="geometry">
                        <Array as="points">
                            <mxPoint x="831" y="589.99"/>
                            <mxPoint x="831" y="544.99"/>
                            <mxPoint x="1001" y="544.99"/>
                            <mxPoint x="1001" y="674.99"/>
                            <mxPoint x="911" y="674.99"/>
                        </Array>
                    </mxGeometry>
                </mxCell>
                <mxCell id="Y9P6SmRl7BAimk-OyJ90-61" value="Highlight" style="swimlane;fontStyle=1;align=center;verticalAlign=top;childLayout=stackLayout;horizontal=1;startSize=26;horizontalStack=0;resizeParent=1;resizeParentMax=0;resizeLast=0;collapsible=1;marginBottom=0;" parent="Y9P6SmRl7BAimk-OyJ90-1" vertex="1">
                    <mxGeometry x="791" y="574.99" width="160" height="60" as="geometry"/>
                </mxCell>
                <mxCell id="Y9P6SmRl7BAimk-OyJ90-62" value="" style="line;strokeWidth=1;fillColor=none;align=left;verticalAlign=middle;spacingTop=-1;spacingLeft=3;spacingRight=3;rotatable=0;labelPosition=right;points=[];portConstraint=eastwest;" parent="Y9P6SmRl7BAimk-OyJ90-61" vertex="1">
                    <mxGeometry y="26" width="160" height="8" as="geometry"/>
                </mxCell>
                <mxCell id="Y9P6SmRl7BAimk-OyJ90-63" value="Highlight" style="text;strokeColor=none;fillColor=none;align=left;verticalAlign=top;spacingLeft=4;spacingRight=4;overflow=hidden;rotatable=0;points=[[0,0.5],[1,0.5]];portConstraint=eastwest;" parent="Y9P6SmRl7BAimk-OyJ90-61" vertex="1">
                    <mxGeometry y="34" width="160" height="26" as="geometry"/>
                </mxCell>
                <mxCell id="Y9P6SmRl7BAimk-OyJ90-64" style="edgeStyle=orthogonalEdgeStyle;rounded=0;orthogonalLoop=1;jettySize=auto;html=1;exitX=0;exitY=0.25;exitDx=0;exitDy=0;entryX=0.25;entryY=0;entryDx=0;entryDy=0;" parent="Y9P6SmRl7BAimk-OyJ90-1" source="Y9P6SmRl7BAimk-OyJ90-65" target="Y9P6SmRl7BAimk-OyJ90-27" edge="1">
                    <mxGeometry relative="1" as="geometry">
                        <Array as="points">
                            <mxPoint x="331" y="784.99"/>
                            <mxPoint x="391" y="784.99"/>
                        </Array>
                    </mxGeometry>
                </mxCell>
                <mxCell id="Y9P6SmRl7BAimk-OyJ90-65" value="RayTracer" style="swimlane;fontStyle=1;align=center;verticalAlign=top;childLayout=stackLayout;horizontal=1;startSize=26;horizontalStack=0;resizeParent=1;resizeParentMax=0;resizeLast=0;collapsible=1;marginBottom=0;" parent="Y9P6SmRl7BAimk-OyJ90-1" vertex="1">
                    <mxGeometry x="331" y="617.99" width="160" height="138" as="geometry"/>
                </mxCell>
                <mxCell id="Y9P6SmRl7BAimk-OyJ90-66" value="Trace" style="text;strokeColor=none;fillColor=none;align=left;verticalAlign=top;spacingLeft=4;spacingRight=4;overflow=hidden;rotatable=0;points=[[0,0.5],[1,0.5]];portConstraint=eastwest;" parent="Y9P6SmRl7BAimk-OyJ90-65" vertex="1">
                    <mxGeometry y="26" width="160" height="26" as="geometry"/>
                </mxCell>
                <mxCell id="Y9P6SmRl7BAimk-OyJ90-67" value="Ray" style="text;strokeColor=none;fillColor=none;align=left;verticalAlign=top;spacingLeft=4;spacingRight=4;overflow=hidden;rotatable=0;points=[[0,0.5],[1,0.5]];portConstraint=eastwest;" parent="Y9P6SmRl7BAimk-OyJ90-65" vertex="1">
                    <mxGeometry y="52" width="160" height="26" as="geometry"/>
                </mxCell>
                <mxCell id="Y9P6SmRl7BAimk-OyJ90-68" value="" style="line;strokeWidth=1;fillColor=none;align=left;verticalAlign=middle;spacingTop=-1;spacingLeft=3;spacingRight=3;rotatable=0;labelPosition=right;points=[];portConstraint=eastwest;" parent="Y9P6SmRl7BAimk-OyJ90-65" vertex="1">
                    <mxGeometry y="78" width="160" height="8" as="geometry"/>
                </mxCell>
                <mxCell id="Y9P6SmRl7BAimk-OyJ90-69" value="Trace" style="text;strokeColor=none;fillColor=none;align=left;verticalAlign=top;spacingLeft=4;spacingRight=4;overflow=hidden;rotatable=0;points=[[0,0.5],[1,0.5]];portConstraint=eastwest;" parent="Y9P6SmRl7BAimk-OyJ90-65" vertex="1">
                    <mxGeometry y="86" width="160" height="26" as="geometry"/>
                </mxCell>
                <mxCell id="Y9P6SmRl7BAimk-OyJ90-70" value="Reflection" style="text;strokeColor=none;fillColor=none;align=left;verticalAlign=top;spacingLeft=4;spacingRight=4;overflow=hidden;rotatable=0;points=[[0,0.5],[1,0.5]];portConstraint=eastwest;" parent="Y9P6SmRl7BAimk-OyJ90-65" vertex="1">
                    <mxGeometry y="112" width="160" height="26" as="geometry"/>
                </mxCell>
                <mxCell id="Y9P6SmRl7BAimk-OyJ90-71" style="edgeStyle=orthogonalEdgeStyle;rounded=0;orthogonalLoop=1;jettySize=auto;html=1;exitX=1;exitY=0.5;exitDx=0;exitDy=0;" parent="Y9P6SmRl7BAimk-OyJ90-1" source="Y9P6SmRl7BAimk-OyJ90-17" target="Y9P6SmRl7BAimk-OyJ90-7" edge="1">
                    <mxGeometry relative="1" as="geometry">
                        <Array as="points">
                            <mxPoint x="301" y="564.99"/>
                            <mxPoint x="641" y="564.99"/>
                        </Array>
                    </mxGeometry>
                </mxCell>
                <mxCell id="Y9P6SmRl7BAimk-OyJ90-72" style="edgeStyle=orthogonalEdgeStyle;rounded=0;orthogonalLoop=1;jettySize=auto;html=1;exitX=1;exitY=0.5;exitDx=0;exitDy=0;entryX=0.75;entryY=0;entryDx=0;entryDy=0;" parent="Y9P6SmRl7BAimk-OyJ90-1" source="Y9P6SmRl7BAimk-OyJ90-36" target="Y9P6SmRl7BAimk-OyJ90-85" edge="1">
                    <mxGeometry relative="1" as="geometry">
                        <Array as="points">
                            <mxPoint x="751" y="974"/>
                            <mxPoint x="751" y="845"/>
                            <mxPoint x="671" y="845"/>
                        </Array>
                    </mxGeometry>
                </mxCell>
                <mxCell id="Y9P6SmRl7BAimk-OyJ90-73" style="edgeStyle=orthogonalEdgeStyle;rounded=0;orthogonalLoop=1;jettySize=auto;html=1;entryX=0.654;entryY=0.004;entryDx=0;entryDy=0;entryPerimeter=0;" parent="Y9P6SmRl7BAimk-OyJ90-1" source="Y9P6SmRl7BAimk-OyJ90-74" target="Y9P6SmRl7BAimk-OyJ90-11" edge="1">
                    <mxGeometry relative="1" as="geometry">
                        <Array as="points">
                            <mxPoint x="246" y="394.99"/>
                        </Array>
                    </mxGeometry>
                </mxCell>
                <mxCell id="Y9P6SmRl7BAimk-OyJ90-74" value="Form" style="swimlane;fontStyle=1;align=center;verticalAlign=top;childLayout=stackLayout;horizontal=1;startSize=26;horizontalStack=0;resizeParent=1;resizeParentMax=0;resizeLast=0;collapsible=1;marginBottom=0;" parent="Y9P6SmRl7BAimk-OyJ90-1" vertex="1">
                    <mxGeometry x="531" y="374.99" width="160" height="60" as="geometry"/>
                </mxCell>
                <mxCell id="Y9P6SmRl7BAimk-OyJ90-75" value="" style="line;strokeWidth=1;fillColor=none;align=left;verticalAlign=middle;spacingTop=-1;spacingLeft=3;spacingRight=3;rotatable=0;labelPosition=right;points=[];portConstraint=eastwest;" parent="Y9P6SmRl7BAimk-OyJ90-74" vertex="1">
                    <mxGeometry y="26" width="160" height="8" as="geometry"/>
                </mxCell>
                <mxCell id="Y9P6SmRl7BAimk-OyJ90-76" value="Class" style="text;strokeColor=none;fillColor=none;align=left;verticalAlign=top;spacingLeft=4;spacingRight=4;overflow=hidden;rotatable=0;points=[[0,0.5],[1,0.5]];portConstraint=eastwest;" parent="Y9P6SmRl7BAimk-OyJ90-74" vertex="1">
                    <mxGeometry y="34" width="160" height="26" as="geometry"/>
                </mxCell>
                <mxCell id="Y9P6SmRl7BAimk-OyJ90-77" style="edgeStyle=orthogonalEdgeStyle;rounded=0;orthogonalLoop=1;jettySize=auto;html=1;exitX=1;exitY=0.5;exitDx=0;exitDy=0;entryX=0.5;entryY=0;entryDx=0;entryDy=0;" parent="Y9P6SmRl7BAimk-OyJ90-1" source="Y9P6SmRl7BAimk-OyJ90-16" target="Y9P6SmRl7BAimk-OyJ90-65" edge="1">
                    <mxGeometry relative="1" as="geometry">
                        <Array as="points">
                            <mxPoint x="301" y="534.99"/>
                            <mxPoint x="411" y="534.99"/>
                            <mxPoint x="411" y="560.99"/>
                        </Array>
                    </mxGeometry>
                </mxCell>
                <mxCell id="Y9P6SmRl7BAimk-OyJ90-78" style="edgeStyle=orthogonalEdgeStyle;rounded=0;orthogonalLoop=1;jettySize=auto;html=1;exitX=0;exitY=0.5;exitDx=0;exitDy=0;entryX=0.25;entryY=0;entryDx=0;entryDy=0;" parent="Y9P6SmRl7BAimk-OyJ90-1" source="Y9P6SmRl7BAimk-OyJ90-13" target="Y9P6SmRl7BAimk-OyJ90-44" edge="1">
                    <mxGeometry relative="1" as="geometry">
                        <Array as="points">
                            <mxPoint x="141" y="364.99"/>
                            <mxPoint x="971" y="364.99"/>
                            <mxPoint x="971" y="654.99"/>
                            <mxPoint x="831" y="654.99"/>
                        </Array>
                    </mxGeometry>
                </mxCell>
                <mxCell id="Y9P6SmRl7BAimk-OyJ90-79" style="edgeStyle=orthogonalEdgeStyle;rounded=0;orthogonalLoop=1;jettySize=auto;html=1;exitX=0;exitY=0.5;exitDx=0;exitDy=0;entryX=0.75;entryY=0;entryDx=0;entryDy=0;" parent="Y9P6SmRl7BAimk-OyJ90-1" source="Y9P6SmRl7BAimk-OyJ90-67" target="Y9P6SmRl7BAimk-OyJ90-34" edge="1">
                    <mxGeometry relative="1" as="geometry">
                        <Array as="points">
                            <mxPoint x="331" y="878"/>
                            <mxPoint x="231" y="878"/>
                        </Array>
                    </mxGeometry>
                </mxCell>
                <mxCell id="Y9P6SmRl7BAimk-OyJ90-80" style="edgeStyle=orthogonalEdgeStyle;rounded=0;orthogonalLoop=1;jettySize=auto;html=1;exitX=0;exitY=0.5;exitDx=0;exitDy=0;entryX=0.5;entryY=0;entryDx=0;entryDy=0;" parent="Y9P6SmRl7BAimk-OyJ90-1" target="Y9P6SmRl7BAimk-OyJ90-55" edge="1">
                    <mxGeometry relative="1" as="geometry">
                        <mxPoint x="141" y="521.99" as="sourcePoint"/>
                        <Array as="points">
                            <mxPoint x="91" y="522"/>
                            <mxPoint x="91" y="415"/>
                            <mxPoint x="421" y="415"/>
                        </Array>
                    </mxGeometry>
                </mxCell>
                <mxCell id="Y9P6SmRl7BAimk-OyJ90-81" style="edgeStyle=orthogonalEdgeStyle;rounded=0;orthogonalLoop=1;jettySize=auto;html=1;exitX=0;exitY=0.5;exitDx=0;exitDy=0;" parent="Y9P6SmRl7BAimk-OyJ90-1" source="Y9P6SmRl7BAimk-OyJ90-17" target="Y9P6SmRl7BAimk-OyJ90-34" edge="1">
                    <mxGeometry relative="1" as="geometry">
                        <Array as="points">
                            <mxPoint x="141" y="626"/>
                            <mxPoint x="121" y="626"/>
                            <mxPoint x="121" y="874"/>
                            <mxPoint x="151" y="874"/>
                        </Array>
                    </mxGeometry>
                </mxCell>
                <mxCell id="Y9P6SmRl7BAimk-OyJ90-82" style="edgeStyle=orthogonalEdgeStyle;rounded=0;orthogonalLoop=1;jettySize=auto;html=1;exitX=1;exitY=0.5;exitDx=0;exitDy=0;entryX=0;entryY=0.075;entryDx=0;entryDy=0;entryPerimeter=0;" parent="Y9P6SmRl7BAimk-OyJ90-1" source="Y9P6SmRl7BAimk-OyJ90-66" target="Y9P6SmRl7BAimk-OyJ90-44" edge="1">
                    <mxGeometry relative="1" as="geometry">
                        <Array as="points">
                            <mxPoint x="491" y="544.99"/>
                            <mxPoint x="771" y="544.99"/>
                            <mxPoint x="771" y="718.99"/>
                        </Array>
                    </mxGeometry>
                </mxCell>
                <mxCell id="Y9P6SmRl7BAimk-OyJ90-83" style="edgeStyle=orthogonalEdgeStyle;rounded=0;orthogonalLoop=1;jettySize=auto;html=1;exitX=1;exitY=0.5;exitDx=0;exitDy=0;entryX=1.003;entryY=0.044;entryDx=0;entryDy=0;entryPerimeter=0;" parent="Y9P6SmRl7BAimk-OyJ90-1" source="Y9P6SmRl7BAimk-OyJ90-30" target="Y9P6SmRl7BAimk-OyJ90-44" edge="1">
                    <mxGeometry relative="1" as="geometry">
                        <Array as="points">
                            <mxPoint x="991" y="1127.99"/>
                            <mxPoint x="991" y="710.99"/>
                        </Array>
                    </mxGeometry>
                </mxCell>
                <mxCell id="Y9P6SmRl7BAimk-OyJ90-84" style="edgeStyle=orthogonalEdgeStyle;rounded=0;orthogonalLoop=1;jettySize=auto;html=1;exitX=0;exitY=0.25;exitDx=0;exitDy=0;entryX=-0.006;entryY=0.138;entryDx=0;entryDy=0;entryPerimeter=0;" parent="Y9P6SmRl7BAimk-OyJ90-1" source="Y9P6SmRl7BAimk-OyJ90-85" target="Y9P6SmRl7BAimk-OyJ90-2" edge="1">
                    <mxGeometry relative="1" as="geometry"/>
                </mxCell>
                <mxCell id="Y9P6SmRl7BAimk-OyJ90-85" value="VectorTexture" style="swimlane;fontStyle=1;align=center;verticalAlign=top;childLayout=stackLayout;horizontal=1;startSize=26;horizontalStack=0;resizeParent=1;resizeParentMax=0;resizeLast=0;collapsible=1;marginBottom=0;" parent="Y9P6SmRl7BAimk-OyJ90-1" vertex="1">
                    <mxGeometry x="551" y="866.99" width="160" height="86" as="geometry"/>
                </mxCell>
                <mxCell id="Y9P6SmRl7BAimk-OyJ90-86" value="" style="line;strokeWidth=1;fillColor=none;align=left;verticalAlign=middle;spacingTop=-1;spacingLeft=3;spacingRight=3;rotatable=0;labelPosition=right;points=[];portConstraint=eastwest;" parent="Y9P6SmRl7BAimk-OyJ90-85" vertex="1">
                    <mxGeometry y="26" width="160" height="8" as="geometry"/>
                </mxCell>
                <mxCell id="Y9P6SmRl7BAimk-OyJ90-87" value="VectorTexture" style="text;strokeColor=none;fillColor=none;align=left;verticalAlign=top;spacingLeft=4;spacingRight=4;overflow=hidden;rotatable=0;points=[[0,0.5],[1,0.5]];portConstraint=eastwest;" parent="Y9P6SmRl7BAimk-OyJ90-85" vertex="1">
                    <mxGeometry y="34" width="160" height="26" as="geometry"/>
                </mxCell>
                <mxCell id="Y9P6SmRl7BAimk-OyJ90-88" value="DrawTexture" style="text;strokeColor=none;fillColor=none;align=left;verticalAlign=top;spacingLeft=4;spacingRight=4;overflow=hidden;rotatable=0;points=[[0,0.5],[1,0.5]];portConstraint=eastwest;" parent="Y9P6SmRl7BAimk-OyJ90-85" vertex="1">
                    <mxGeometry y="60" width="160" height="26" as="geometry"/>
                </mxCell>
                <mxCell id="Y9P6SmRl7BAimk-OyJ90-89" style="edgeStyle=orthogonalEdgeStyle;rounded=0;orthogonalLoop=1;jettySize=auto;html=1;exitX=0;exitY=0.25;exitDx=0;exitDy=0;entryX=0.5;entryY=0;entryDx=0;entryDy=0;" parent="Y9P6SmRl7BAimk-OyJ90-1" source="Y9P6SmRl7BAimk-OyJ90-61" target="Y9P6SmRl7BAimk-OyJ90-85" edge="1">
                    <mxGeometry relative="1" as="geometry">
                        <mxPoint x="871" y="1039.9899999999998" as="sourcePoint"/>
                        <mxPoint x="431" y="1054.9899999999998" as="targetPoint"/>
                        <Array as="points">
                            <mxPoint x="751" y="589.99"/>
                            <mxPoint x="751" y="834.99"/>
                            <mxPoint x="631" y="834.99"/>
                        </Array>
                    </mxGeometry>
                </mxCell>
                <mxCell id="Y9P6SmRl7BAimk-OyJ90-90" style="edgeStyle=orthogonalEdgeStyle;rounded=0;orthogonalLoop=1;jettySize=auto;html=1;entryX=0.458;entryY=1.049;entryDx=0;entryDy=0;entryPerimeter=0;exitX=1.006;exitY=0.212;exitDx=0;exitDy=0;exitPerimeter=0;" parent="Y9P6SmRl7BAimk-OyJ90-1" source="Y9P6SmRl7BAimk-OyJ90-41" target="Y9P6SmRl7BAimk-OyJ90-53" edge="1">
                    <mxGeometry relative="1" as="geometry">
                        <Array as="points">
                            <mxPoint x="271" y="1160"/>
                            <mxPoint x="864" y="1160"/>
                        </Array>
                        <mxPoint x="271" y="1239" as="sourcePoint"/>
                    </mxGeometry>
                </mxCell>
            </root>
        </mxGraphModel>
    </diagram>
</mxfile>